<?xml version="1.0" encoding="UTF-8" standalone="no"?>
<!-- Created with Inkscape (http://www.inkscape.org/) -->

<svg
   width="79.363312mm"
   height="58.927513mm"
   viewBox="0 0 299.95583 222.71816"
   version="1.1"
   id="svg1"
   inkscape:version="1.4.2 (f4327f4, 2025-05-13)"
   sodipodi:docname="giraffe1.svg"
   xmlns:inkscape="http://www.inkscape.org/namespaces/inkscape"
   xmlns:sodipodi="http://sodipodi.sourceforge.net/DTD/sodipodi-0.dtd"
   xmlns="http://www.w3.org/2000/svg"
   xmlns:svg="http://www.w3.org/2000/svg">
  <sodipodi:namedview
     id="namedview1"
     pagecolor="#505050"
     bordercolor="#eeeeee"
     borderopacity="1"
     inkscape:showpageshadow="0"
     inkscape:pageopacity="0"
     inkscape:pagecheckerboard="0"
     inkscape:deskcolor="#505050"
     inkscape:document-units="mm"
     inkscape:zoom="0.71891835"
     inkscape:cx="29.906039"
     inkscape:cy="29.906039"
     inkscape:window-width="1920"
     inkscape:window-height="1009"
     inkscape:window-x="1912"
     inkscape:window-y="-8"
     inkscape:window-maximized="1"
     inkscape:current-layer="layer1" />
  <defs
     id="defs1">
    <pattern
       id="EMFhbasepattern"
       patternUnits="userSpaceOnUse"
       width="6"
       height="6"
       x="0"
       y="0" />
  </defs>
  <g
     inkscape:label="Lag 1"
     inkscape:groupmode="layer"
     id="layer1"
     transform="translate(-211.1295,-197.35761)">
    <path
       style="fill:#000000;stroke-width:1.12704"
       d="m 211.16418,419.76272 c 0.16016,-0.19661 0.56129,-0.27883 0.89139,-0.18274 0.33008,0.0961 0.50315,0.0557 0.38458,-0.0899 -0.11853,-0.14552 0.22723,-0.58015 0.76843,-0.96584 l 0.98402,-0.70124 0.18491,0.42028 c 0.10176,0.23115 0.13603,0.17331 0.0763,-0.12853 -0.0598,-0.30184 0.36504,-1.07825 0.94394,-1.72534 0.5789,-0.6471 1.27349,-1.60044 1.54353,-2.11855 1.38215,-2.6518 2.52264,-4.25055 3.13785,-4.39867 0.37677,-0.0907 1.22447,-0.88156 1.88378,-1.75746 0.65934,-0.87589 1.39219,-1.84642 1.62861,-2.15673 0.81481,-1.06954 1.5765,-1.61003 2.8467,-2.02004 1.22681,-0.396 2.00933,-1.28116 3.14149,-3.55352 0.27946,-0.56092 0.64891,-1.01987 0.82097,-1.01987 0.17207,0 0.54458,0.21183 0.82784,0.47072 0.87777,0.8023 1.24105,0.52674 1.24105,-0.94142 0,-0.77667 0.19076,-1.41211 0.42391,-1.41211 0.23316,0 0.60087,-0.35302 0.81712,-0.78452 0.21627,-0.43147 0.57143,-0.78451 0.78925,-0.78451 0.21784,0 0.50784,-0.26717 0.64448,-0.59373 0.13662,-0.32654 0.62849,-0.66912 1.09303,-0.76127 l 0.84462,-0.16754 -0.4898,-0.69425 c -0.2694,-0.38182 -0.53611,-1.06305 -0.5927,-1.5138 -0.0565,-0.45077 -0.24233,-1.06669 -0.41278,-1.36873 l -0.30988,-0.54916 h 0.7136 c 0.39247,0 1.36124,0.43135 2.15282,0.95856 0.79157,0.52722 1.74693,0.91434 2.12302,0.86028 0.41233,-0.0593 0.7397,-0.47057 0.82456,-1.03599 0.1588,-1.058 0.76854,-1.47439 1.80204,-1.2306 l 0.70173,0.16554 0.64273,-1.64178 c 0.35351,-0.90297 0.64274,-1.90882 0.64274,-2.2352 v -0.59343 l 1.10508,0.65939 c 1.53409,0.91536 2.17435,0.38029 1.26873,-1.0603 l -0.67915,-1.08035 0.49714,-0.12665 0.49715,-0.12666 -0.58668,-0.83539 c -0.32266,-0.45946 -0.50883,-0.89204 -0.41368,-0.96128 0.0951,-0.0692 0.91761,0.11904 1.82772,0.41838 0.9101,0.29933 2.24172,0.69138 2.95915,0.8712 l 1.30442,0.32694 0.82877,-0.85032 c 0.45583,-0.46768 0.8927,-1.25728 0.97084,-1.75465 l 0.14207,-0.90434 -1.02717,-0.39018 c -1.03465,-0.39303 -2.07545,-1.26136 -2.07545,-1.73151 0,-0.1396 0.61658,-0.25383 1.37019,-0.25383 0.75359,0 2.1736,-0.29445 3.15553,-0.65432 l 1.78534,-0.65433 3.56683,0.36347 c 1.96175,0.19991 4.74218,0.65008 6.17877,1.00038 1.43656,0.35031 2.72489,0.55124 2.86293,0.44652 0.43528,-0.33018 -1.41115,-1.56727 -3.7955,-2.54293 -1.26336,-0.51696 -2.29766,-1.04854 -2.29846,-1.18127 -0.001,-0.31936 1.83967,0.0188 4.08454,0.7499 0.99591,0.32437 2.29903,0.58424 2.89579,0.57751 l 1.08504,-0.0123 -1.75815,-0.80412 c -0.96699,-0.44227 -1.75815,-0.94672 -1.75815,-1.121 0,-0.45071 2.61591,-0.0281 4.79311,0.77418 0.99422,0.36641 1.94478,0.56218 2.11238,0.43506 0.49394,-0.37469 -0.45419,-1.2314 -1.76213,-1.59223 -3.51161,-0.96875 -4.14991,-1.92197 -1.10994,-1.65759 l 1.96498,0.17089 1.34449,-0.62637 c 0.73945,-0.34451 1.34446,-0.84199 1.34446,-1.10551 0,-0.3379 0.27438,-0.42917 0.93079,-0.30964 2.63102,0.4791 4.0334,0.57418 4.0334,0.27342 0,-0.17741 -0.21911,-0.37798 -0.48691,-0.4457 -0.82171,-0.20777 0.002,-0.80582 1.63032,-1.18256 0.85005,-0.19676 2.64248,-0.65546 3.98317,-1.01929 l 2.43763,-0.66153 -0.92097,-0.25843 c -0.50653,-0.14213 -0.85037,-0.41906 -0.7641,-0.61537 0.0863,-0.19631 1.8984,-0.9505 4.02696,-1.67597 l 3.87013,-1.31903 0.93094,-1.38955 c 0.64836,-0.96774 1.41427,-1.56355 2.52319,-1.96281 2.84519,-1.0244 7.74363,-3.43526 10.10485,-4.97331 1.26903,-0.82663 2.49688,-1.50296 2.72853,-1.50296 0.23165,0 2.35341,-0.98848 4.71501,-2.19664 2.36162,-1.20815 4.64702,-2.19662 5.0787,-2.19662 h 0.78484 l -0.56775,0.52946 -0.56777,0.52946 0.75778,-0.21566 c 0.41678,-0.11861 0.83564,-0.21566 0.93079,-0.21566 0.0951,0 0.17301,-0.28544 0.17301,-0.63434 0,-0.39196 0.43466,-0.77747 1.13763,-1.00899 1.05238,-0.34658 13.09009,-9.24679 16.87658,-12.47786 1.42229,-1.21367 4.76464,-3.49336 6.67669,-4.55392 0.31802,-0.1764 0.80318,-0.62389 1.07811,-0.99441 0.27493,-0.37052 2.02663,-1.94788 3.89265,-3.50524 1.866,-1.55737 3.85003,-3.5112 4.40894,-4.34187 0.55892,-0.83064 1.9941,-2.42815 3.18931,-3.55 1.1952,-1.12185 2.80736,-2.78931 3.58257,-3.70545 1.29894,-1.53516 3.94862,-3.94888 11.08941,-10.10194 1.50222,-1.29444 3.14712,-2.91838 3.65531,-3.60875 1.36559,-1.85516 7.57452,-7.61275 8.86483,-8.22042 1.43679,-0.67666 4.81169,-3.30809 4.69365,-3.65967 -0.1672,-0.49803 1.98916,-2.34522 4.44922,-3.81132 2.2313,-1.32977 4.432,-3.56693 5.70959,-5.80418 0.24639,-0.43149 1.67843,-1.96235 3.18233,-3.40192 1.50387,-1.43958 2.62461,-2.75207 2.49051,-2.91666 -0.13411,-0.1646 0.48112,-1.03433 1.36714,-1.93276 1.71446,-1.73841 6.68728,-7.44241 7.50248,-8.60559 0.26829,-0.38281 1.34182,-1.19068 2.38565,-1.79527 1.04382,-0.60458 3.65654,-2.3707 5.80603,-3.92469 2.1495,-1.554 4.41499,-3.05255 5.03443,-3.33012 0.61945,-0.27756 1.55523,-1.07005 2.07952,-1.76108 1.03933,-1.36989 1.5677,-1.4613 0.91458,-0.15824 -0.48936,0.97636 -0.0273,1.29973 1.45412,1.01769 l 1.02081,-0.19434 1.00289,0.82087 c 0.55159,0.45148 1.20431,0.72645 1.45049,0.61104 0.26423,-0.12388 0.34321,-0.63187 0.19278,-1.24009 l -0.25478,-1.03025 0.86261,-0.17111 c 0.58566,-0.11618 0.86263,-0.4243 0.86263,-0.95958 0,-0.43365 0.32228,-1.21443 0.71618,-1.73505 0.3939,-0.52062 0.59601,-1.03774 0.44911,-1.14918 -0.4922,-0.37336 -1.89457,0.45054 -2.16668,1.27297 -0.18038,0.54515 -0.50323,0.77998 -0.97839,0.71165 -0.93126,-0.13392 -1.16809,-1.71801 -0.35872,-2.39946 0.34062,-0.28676 0.75681,-0.94503 0.92486,-1.46281 0.16804,-0.51777 0.93189,-1.56657 1.69746,-2.33063 1.80045,-1.79698 2.09604,-2.72888 1.22904,-3.87479 -0.94614,-1.25055 -0.8653,-1.79658 0.26597,-1.79658 1.3663,0 1.94433,0.58132 1.94433,1.95542 0,0.67993 0.22467,1.26156 0.5171,1.33865 0.77448,0.20421 3.24167,-0.26672 3.28356,-0.62674 0.0201,-0.1726 -0.36651,-0.46995 -0.85909,-0.6608 l -0.89559,-0.34698 0.776,-0.72695 0.77602,-0.72695 1.91206,0.40609 c 1.05164,0.22335 2.51214,0.74193 3.24556,1.15239 0.73345,0.41047 1.53521,0.7463 1.78173,0.7463 0.24653,0 0.767,-0.28243 1.15664,-0.62761 0.38962,-0.34519 1.06711,-0.62761 1.50555,-0.62761 h 0.79713 l 0.46667,1.64747 0.46665,1.64747 -0.78533,0.4837 c -1.04999,0.64672 -1.84744,1.82089 -1.58673,2.33629 0.26007,0.51409 -1.40412,0.8765 -2.80239,0.6103 l -1.00022,-0.19045 -0.46223,0.65517 c -0.30914,0.43818 -0.86841,0.65516 -1.68872,0.65516 -0.67457,0 -1.22649,0.0841 -1.22649,0.1869 0,0.10281 0.38737,0.59957 0.8608,1.10392 0.47344,0.50437 1.19705,1.64133 1.60803,2.52659 0.411,0.88526 1.04749,1.73703 1.41448,1.89282 0.36695,0.15577 0.66721,0.42577 0.66721,0.59996 0,0.17421 -0.1485,0.24712 -0.33002,0.16202 -0.64642,-0.30306 -1.35766,0.34237 -1.59384,1.44637 l -0.23981,1.12098 0.85763,0.34818 0.85762,0.34818 0.48708,-0.71005 c 0.2679,-0.39054 0.55838,-0.77149 0.64548,-0.84656 0.24688,-0.21276 3.45268,2.25929 3.45268,2.66241 0,0.50312 -1.24259,2.33847 -1.5816,2.33607 -0.15399,-6.6e-4 -0.59707,-0.42472 -0.98467,-0.94141 -0.38759,-0.51668 -0.95953,-0.93943 -1.27099,-0.93943 -0.31145,0 -1.08378,0.59957 -1.71626,1.33238 l -1.14997,1.33237 0.23386,1.29425 c 0.12862,0.71183 0.12836,1.37425 -5.1e-4,1.47202 -0.12889,0.0978 -1.04873,-0.12236 -2.04406,-0.48918 -0.99535,-0.36682 -1.88513,-0.60502 -1.97731,-0.5293 -0.0921,0.0757 -0.30045,0.60776 -0.46284,1.18236 l -0.29524,1.04474 0.93712,-0.10333 0.93711,-0.10331 0.3648,0.94141 c 1.22711,3.16688 1.57871,4.46376 1.37618,5.07595 -0.12578,0.38002 -0.0418,0.77857 0.18657,0.88563 0.22837,0.10705 0.4152,0.68651 0.4152,1.28768 0,1.05553 0.19671,1.35292 1.75816,2.65806 0.39816,0.33283 0.51451,0.60512 0.25855,0.60512 -0.29778,0 -0.37486,0.34338 -0.21403,0.95336 l 0.25135,0.95336 -0.63252,0.18412 c -0.53238,0.15496 -2.66256,2.86738 -2.66256,3.3903 0,0.092 0.26574,0.16734 0.5905,0.16734 0.32477,0 0.95658,-0.35303 1.40401,-0.78451 0.44744,-0.43148 1.00886,-0.78451 1.24761,-0.78451 0.23877,0 0.67738,-0.26217 0.97468,-0.58259 0.29731,-0.32042 0.94575,-0.67969 1.44099,-0.79836 1.14569,-0.27451 3.85693,0.5648 3.85693,1.194 0,0.8745 -3.72839,7.19042 -9.09469,15.40646 -2.93094,4.4874 -6.45211,9.97063 -7.82481,12.18496 -1.38414,2.23277 -2.67914,3.9401 -2.90738,3.83309 -0.22636,-0.10611 -0.52908,-0.66811 -0.6727,-1.2489 -0.26672,-1.07841 -2.96466,-4.07325 -4.31654,-4.79152 -0.5108,-0.2714 -0.85309,-1.02472 -1.074,-2.36375 -0.17834,-1.08098 -0.27385,-2.17721 -0.21224,-2.4361 0.18314,-0.76967 1.6809,-1.80722 2.86534,-1.98493 0.60922,-0.0914 1.50538,0.0298 1.99746,0.27018 0.49445,0.24151 1.60148,0.39029 2.4821,0.33358 0.87429,-0.0564 1.91538,-0.1216 2.31356,-0.14511 0.49065,-0.0289 0.72393,-0.30734 0.72393,-0.86385 v -0.82112 l -0.82736,0.16413 c -0.79727,0.15814 -1.00981,-0.0837 -0.85312,-0.97082 0.0397,-0.22505 -0.5319,-0.93111 -1.27033,-1.56902 l -1.34261,-1.15984 -2.19697,0.10745 -2.19695,0.10744 -0.005,-0.57816 c -0.002,-0.31797 -0.48446,-1.2136 -1.07049,-1.99026 -0.58605,-0.77667 -1.31418,-1.86244 -1.61809,-2.41283 l -0.55257,-1.00069 1.63581,-0.64678 c 0.8997,-0.35573 1.97958,-0.64677 2.39978,-0.64677 0.42019,0 0.99573,-0.21181 1.27896,-0.4707 0.28325,-0.25889 1.15241,-0.47071 1.93147,-0.47071 h 1.41648 l 0.69157,0.91406 0.69157,0.91406 2.37867,0.35498 c 1.30826,0.19525 2.48865,0.48998 2.62308,0.65496 0.13442,0.16499 0.6988,0.29998 1.25419,0.29998 0.62181,0 1.00979,-0.18086 1.00979,-0.47071 0,-0.25888 -0.28383,-0.4707 -0.63076,-0.4707 -1.25916,0 -1.94077,-3.09379 -0.98126,-4.4538 l 0.4564,-0.64688 -0.55982,-0.2691 c -0.30789,-0.148 -1.03015,-0.27125 -1.60501,-0.27389 l -1.04519,-0.005 -1.14271,-1.33366 c -0.62849,-0.73352 -1.2489,-1.65192 -1.37871,-2.04087 -0.12979,-0.38895 0.017,-1.35904 0.32634,-2.15575 0.51848,-1.33564 1.55084,-2.26196 3.47649,-3.11937 1.03652,-0.46153 0.49392,-1.39209 -0.81171,-1.39209 -1.50902,0 -3.08228,-1.74095 -3.55211,-3.93072 -0.2128,-0.99186 -0.48113,-1.87486 -0.59627,-1.96219 -0.11516,-0.0874 -0.48492,0.0147 -0.82175,0.22673 -0.33683,0.21205 -0.78183,0.30611 -0.98892,0.20903 -0.20708,-0.0971 -0.70948,0.10257 -1.11644,0.44369 -0.40697,0.3411 -1.16991,0.6202 -1.69547,0.6202 -0.5261,0 -1.15083,0.27681 -1.39008,0.61592 -0.25543,0.36205 -0.68773,0.54224 -1.04876,0.43713 -1.02373,-0.29798 -0.70568,0.71214 0.39675,1.26008 0.66315,0.3296 1.44592,0.43649 2.27526,0.31066 l 1.26428,-0.1918 v 1.07118 c 0,0.58915 0.37233,1.62515 0.82737,2.30221 0.87463,1.30133 1.10951,3.43944 0.41368,3.76566 -0.22752,0.10666 -0.41368,0.79788 -0.41368,1.53604 v 1.3421 l -1.47018,1.43144 c -1.52744,1.48718 -2.79585,2.00332 -3.4036,1.38495 -0.19452,-0.19792 -0.54974,-0.87329 -0.78938,-1.50085 l -0.43568,-1.14096 0.59647,-2.46778 c 0.32807,-1.35728 0.6299,-3.10323 0.67073,-3.8799 0.0511,-0.97197 0.32798,-1.57206 0.88822,-1.9253 l 0.81396,-0.5132 -0.5447,-0.49785 -0.54468,-0.49786 -0.97282,0.54035 c -0.67178,0.37313 -1.05122,0.9773 -1.22619,1.95245 -0.37947,2.11483 -1.06961,4.48078 -1.48625,5.09507 -0.20326,0.2997 -0.36957,0.81437 -0.36957,1.14372 0,0.32933 -0.37979,1.53156 -0.84399,2.67159 l -0.84398,2.07278 h -0.96179 c -0.529,0 -1.43513,-0.28242 -2.01363,-0.6276 -1.25054,-0.74618 -1.54185,-0.77933 -1.54185,-0.17544 0,0.88078 -0.93205,0.87098 -1.89254,-0.0199 -1.06232,-0.98536 -1.22807,-1.72388 -0.58988,-2.62846 l 0.41337,-0.58589 -0.82705,-0.19912 c -0.45489,-0.10952 -1.19937,-0.10949 -1.65443,7e-5 l -0.82737,0.19919 -0.0476,-1.19791 c -0.0262,-0.65885 -0.0174,-1.43253 0.0198,-1.71927 0.11116,-0.85978 -0.85409,-1.0403 -1.59243,-0.29781 l -0.67937,0.68322 -1.33229,-0.50418 c -1.44967,-0.54858 -1.68027,-1.10367 -0.71174,-1.7134 0.34129,-0.21487 0.62053,-0.59527 0.62053,-0.84536 0,-0.25007 0.27923,-0.6665 0.62052,-0.9254 0.7288,-0.55284 0.8087,-1.05349 0.16811,-1.05349 -0.24883,0 -0.53825,0.24713 -0.64314,0.54916 -0.10494,0.30204 -0.92519,0.819 -1.82285,1.14881 -0.89766,0.3298 -1.6328,0.82403 -1.63366,1.09831 -10e-4,0.49448 -1.26488,2.24381 -2.20062,3.04714 -0.26773,0.22983 -1.04524,0.93164 -1.72782,1.55954 -0.68259,0.62792 -1.90603,1.72563 -2.71879,2.43937 -2.27297,1.99611 -3.07277,3.51968 -3.07277,5.85348 v 2.03415 h 0.59298 c 0.37531,0 1.06707,-1.03684 1.88431,-2.82425 1.36544,-2.9864 4.24642,-7.04447 5.0083,-7.05459 0.84355,-0.0111 1.82227,1.13653 1.82227,2.13688 0,0.54735 0.18616,0.99517 0.4137,0.99517 0.59868,0 0.50777,0.9655 -0.14542,1.54429 -0.30749,0.27249 -1.51839,1.85565 -2.69088,3.51816 l -2.13182,3.02272 0.99672,0.14453 c 1.31178,0.19021 2.31666,-0.26267 2.31666,-1.04409 0,-0.34556 0.36515,-1.1505 0.81146,-1.78878 0.44631,-0.63826 1.22393,-1.83124 1.72806,-2.65105 0.50414,-0.81981 1.15652,-1.49057 1.44977,-1.49057 0.29322,0 1.18471,0.2357 1.98106,0.52375 l 1.44791,0.52376 0.48338,1.63844 0.48336,1.63845 -1.19329,1.21119 c -0.65632,0.66617 -1.33292,1.25827 -1.50357,1.3158 -0.17064,0.0575 -0.31026,0.36725 -0.31026,0.68826 0,0.32103 -0.32577,0.76957 -0.72395,0.9968 -1.42581,0.81364 -2.2565,1.79773 -2.38026,2.81983 -0.16535,1.36549 -1.55371,4.18471 -2.41727,4.90854 -0.37608,0.31522 -0.68878,0.77383 -0.6949,1.01912 -0.0186,0.73935 -2.18728,2.4417 -3.38741,2.65887 l -1.12328,0.20325 -1.2554,-1.04264 c -0.69047,-0.57346 -1.25824,-1.32889 -1.26174,-1.67876 -0.004,-0.34987 -0.18125,-0.84599 -0.39507,-1.10251 l -0.38872,-0.46638 -1.25788,0.36016 c -0.8473,0.24261 -1.34328,0.25534 -1.51952,0.0391 -0.1439,-0.1766 -0.005,-0.44051 0.30848,-0.58645 1.81606,-0.84524 2.4994,-1.4734 2.89311,-2.65944 0.28027,-0.84432 1.02765,-1.76109 2.05777,-2.52409 0.8897,-0.65903 1.61763,-1.38139 1.61763,-1.60524 0,-0.55378 -1.02222,-0.51444 -1.65474,0.0637 -0.6551,0.59878 -1.65471,0.60997 -1.65471,0.0186 0,-1.09563 -0.86413,-0.64512 -2.52846,1.31819 -2.32374,2.74117 -5.00104,4.78248 -6.27252,4.78248 -0.53901,0 -1.69504,0.4044 -2.56896,0.89867 -0.87388,0.49428 -1.90721,0.83554 -2.29622,0.75839 -0.44986,-0.0892 -1.03797,0.21188 -1.6156,0.82723 -0.62629,0.66719 -1.25266,0.96832 -2.0177,0.97002 l -1.10946,0.003 -1.44789,1.74259 c -0.79634,0.9584 -1.75001,1.98109 -2.11926,2.27262 -0.9674,0.76375 -2.09128,2.53922 -1.81895,2.8735 0.12786,0.15691 -0.0972,0.4326 -0.50019,0.61265 l -0.73265,0.32735 0.56524,0.28217 c 0.36713,0.18328 0.43963,0.44659 0.20684,0.75129 -0.55965,0.73255 -2.75281,2.02665 -3.66785,2.16425 l -0.82737,0.1244 0.13377,1.15564 c 0.0735,0.6356 -0.0195,1.34906 -0.20685,1.58543 -0.35362,0.44622 -4.22092,3.05135 -6.15608,4.14694 -1.08515,0.61436 -1.63083,1.01821 -3.26849,2.41904 l -0.81033,0.69313 -0.0934,2.05267 c -0.25189,5.53728 -0.51081,7.82778 -0.9562,8.45908 -0.26813,0.38004 -0.37113,1.0929 -0.22891,1.58412 0.15456,0.53381 0.0689,0.98206 -0.21281,1.11415 -0.25929,0.12155 -0.36537,0.54161 -0.23572,0.93344 0.15024,0.45408 -0.0626,1.00015 -0.58699,1.50583 -0.45251,0.43637 -0.82274,0.90122 -0.82274,1.03301 0,0.13177 -0.29747,0.48893 -0.66105,0.79368 -0.90843,0.76144 -0.33192,1.43221 0.65101,0.75745 l 0.73518,-0.5047 0.2638,0.52144 c 0.14508,0.2868 -0.0157,0.94638 -0.35722,1.46573 -0.57215,0.87 -0.48298,2.44652 0.13707,2.4232 0.64289,-0.0241 1.71331,-0.89155 1.71331,-1.38831 0,-0.29953 0.25474,-0.91942 0.56608,-1.37753 0.31135,-0.45811 1.19561,-1.87588 1.965,-3.15062 1.40274,-2.32402 2.7407,-3.39234 3.84573,-3.07067 0.3254,0.0947 0.65261,0.49858 0.72714,0.89746 l 0.1355,0.72525 1.44791,0.0275 c 0.79634,0.0151 1.68057,0.0505 1.965,0.0784 0.6185,0.061 0.70712,2.12145 0.10336,2.40448 -0.56701,0.26582 -0.52055,1.60467 0.081,2.33538 l 0.49474,0.60093 -0.805,1.14896 c -0.44275,0.63192 -1.29477,1.343 -1.89335,1.58017 -0.5986,0.23716 -1.53916,0.83761 -2.09015,1.33432 -0.55099,0.4967 -1.49683,0.99736 -2.10191,1.11256 -0.60508,0.1152 -2.02915,0.91417 -3.16463,1.77549 -1.13547,0.86134 -2.32015,1.56606 -2.63261,1.56606 -0.31246,0 -1.01941,0.36644 -1.571,0.81432 -1.26866,1.0301 -3.17778,1.79247 -3.93603,1.57176 -0.71305,-0.20757 -0.76295,-1.1828 -0.0867,-1.69572 l 0.49643,-0.37657 -0.80668,0.0111 c -0.44368,0.006 -1.25073,0.19782 -1.79346,0.42603 l -0.98679,0.41491 1.07902,0.20542 1.07903,0.20543 -0.44097,0.73416 c -0.28737,0.47842 -0.82384,0.74948 -1.54013,0.7782 -3.79052,0.15197 -5.11823,0.10693 -5.50535,-0.18674 -0.26797,-0.20326 -0.32389,-0.8409 -0.14444,-1.64665 l 0.29287,-1.31494 1.50834,-0.47385 c 0.8296,-0.26062 1.8287,-0.73119 2.22021,-1.04572 1.23669,-0.9935 3.47957,-2.18683 4.11018,-2.18683 0.52528,0 2.41742,-1.57544 2.41742,-2.0128 0,-0.0855 -0.65899,-0.24918 -1.46442,-0.36379 l -1.46444,-0.2084 -0.73999,0.50798 c -0.9271,0.63645 -1.96062,0.65341 -2.27231,0.0373 -0.31219,-0.61712 -1.50513,-0.60911 -1.50513,0.0101 0,0.26445 0.41886,0.60853 0.93079,0.76463 1.05335,0.32117 0.71154,0.41242 -1.24106,0.33133 l -1.34447,-0.0559 v 0.65165 c 0,0.36012 -0.26841,0.65165 -0.59997,0.65165 -0.32998,0 -0.78141,0.24594 -1.00317,0.54654 -0.22549,0.30564 -0.55365,0.42503 -0.7445,0.27084 -0.18772,-0.15164 -0.12837,-0.33374 0.1319,-0.40468 0.54035,-0.1473 0.24809,-1.35411 -0.32794,-1.35411 -0.20831,0 -0.53175,-0.31373 -0.71874,-0.69715 -0.24292,-0.49815 -0.0716,-1.08005 0.60027,-2.03855 1.02925,-1.46839 3.03424,-2.91279 4.04328,-2.91279 0.95304,0 2.93905,-1.40393 2.59074,-1.83142 -0.16366,-0.20086 -0.59767,-0.36521 -0.96451,-0.36521 -0.36681,0 -0.98046,-0.21521 -1.36364,-0.47827 -0.73685,-0.50582 -2.0556,-0.32882 -2.06001,0.27649 -10e-4,0.19728 -0.55991,0.59925 -1.24105,0.89325 -0.68114,0.29401 -1.23843,0.73106 -1.23843,0.97123 0,0.24016 -0.37233,0.69224 -0.82737,1.00464 -0.45505,0.31239 -0.82737,0.82081 -0.82737,1.12983 0,0.52059 -0.87806,1.02101 -3.20605,1.82723 -1.05927,0.36684 -1.26532,1.61946 -0.36012,2.18933 0.31386,0.19759 0.6876,0.80274 0.8305,1.34475 0.18669,0.70808 0.0554,1.15682 -0.46627,1.59412 -1.04377,0.87489 -2.9006,1.55191 -3.2111,1.17081 -0.14009,-0.17195 -0.56252,-0.31265 -0.93871,-0.31265 -0.37621,0 -1.07904,-0.37581 -1.56185,-0.83512 -0.48282,-0.45933 -1.07039,-0.74489 -1.30568,-0.63457 -0.23529,0.11032 -0.54592,0.76084 -0.69028,1.44563 -0.26487,1.25655 -1.45397,2.2207 -2.73881,2.2207 -0.35206,0 -1.66027,0.41888 -2.90716,0.93083 -2.37872,0.97669 -2.83629,1.14756 -7.86971,2.93868 l -3.12054,1.11043 -2.15392,1.87851 c -1.18466,1.03318 -2.15393,2.09447 -2.15393,2.3584 0,0.26395 0.32578,0.61819 0.72396,0.78723 l 0.72394,0.30732 -1.15784,0.33393 -1.15784,0.33394 -1.21575,-0.68182 c -1.40744,-0.78933 -2.11734,-0.54865 -1.04151,0.35311 l 0.73093,0.61267 -0.91311,0.97276 -0.91313,0.97274 -1.78311,-0.20283 -1.7831,-0.20283 -0.70481,0.81596 c -0.77858,0.90138 -1.45229,1.01003 -2.67397,0.43129 l -0.81204,-0.3847 -1.57847,1.16921 c -0.86816,0.64305 -1.83521,1.16919 -2.14899,1.16919 -0.31377,0 -0.90615,0.23043 -1.31643,0.51207 l -0.74592,0.51206 -1.08281,-0.53819 -1.08282,-0.53819 -1.20304,0.37799 c -0.66168,0.20791 -1.20578,0.5374 -1.20914,0.7322 -0.004,0.1948 -0.24032,6.6e-4 -0.52662,-0.43032 l -0.52051,-0.78451 -1.64521,-0.0993 -1.64523,-0.0993 1.60331,1.11914 c 0.88181,0.61552 1.85915,1.11913 2.17184,1.11913 0.75042,0 0.72148,0.46675 -0.066,1.06406 -0.64883,0.49218 -3.13754,1.12768 -4.42842,1.13082 -0.39557,6.6e-4 -1.08573,0.23979 -1.53366,0.53073 -0.44796,0.29095 -1.42515,0.67928 -2.17153,0.86297 -0.74639,0.18369 -1.41502,0.56333 -1.48584,0.84364 -0.20323,0.8044 1.12318,0.96665 2.54401,0.31119 1.55184,-0.71591 7.04317,-1.21393 7.84174,-0.71119 0.37481,0.23597 1.03368,0.19926 2.28261,-0.12714 0.96564,-0.25237 2.2081,-0.37271 2.76103,-0.26745 1.30198,0.24788 2.43353,-0.55783 2.05476,-1.46309 -0.1726,-0.41248 -0.0441,-0.78711 0.35051,-1.02082 0.34272,-0.20306 0.68703,-0.64809 0.76513,-0.98894 0.078,-0.34085 0.52173,-0.76448 0.98586,-0.94141 0.46415,-0.17694 1.60625,-0.78064 2.53798,-1.34155 1.99704,-1.20227 3.60123,-1.30673 4.97983,-0.32431 l 0.97604,0.69556 0.70536,-0.32393 c 0.38793,-0.17816 0.98458,-0.77556 1.32587,-1.32754 0.35402,-0.57257 1.04985,-1.08936 1.62018,-1.20327 l 0.99966,-0.19966 1.57351,1.3808 1.57353,1.38081 0.0129,1.12812 c 0.007,0.72059 0.31123,1.33331 0.83971,1.69611 0.45505,0.31239 0.82737,0.81745 0.82737,1.12236 0,0.3146 0.79862,0.93826 1.84647,1.44193 l 1.84648,0.88755 0.0151,0.84254 c 0.0219,1.21969 -0.60437,2.28078 -1.87249,3.17275 -0.61133,0.43 -0.98419,0.93807 -0.8286,1.12905 0.4943,0.60668 1.74606,0.3754 2.55483,-0.47203 0.43005,-0.45062 1.03079,-1.01767 1.33501,-1.26013 l 0.55311,-0.44085 1.23679,0.78942 c 0.68022,0.43418 1.39273,0.78942 1.58335,0.78942 0.59862,0 2.48572,2.86239 2.48572,3.7704 0,0.47693 -0.32578,1.1493 -0.72395,1.49417 -0.8553,0.74083 -3.0033,1.32532 -4.87049,1.32532 -0.7338,0 -2.10815,0.20715 -3.05415,0.46033 l -1.71999,0.46033 -1.7449,-0.73282 -1.74491,-0.7328 -1.24106,-1.82513 c -0.68257,-1.00381 -1.52029,-1.92474 -1.86156,-2.04651 -2.55201,-0.91049 -3.72316,-1.40059 -3.72316,-1.55803 0,-0.10089 0.55847,-0.49664 1.24106,-0.87945 0.68258,-0.38281 1.24105,-0.90709 1.24105,-1.16509 0,-0.25799 -0.50641,-0.61513 -1.12534,-0.79364 l -1.12534,-0.32454 -0.52939,0.54919 c -0.29117,0.30206 -0.52941,0.86014 -0.52941,1.24017 0,0.76286 -0.91586,1.19305 -1.53695,0.72193 -0.52233,-0.39623 -2.54073,0.18173 -2.86361,0.81997 -0.13337,0.26368 -0.0548,0.65413 0.17472,0.86767 0.22949,0.21354 0.6521,0.98841 0.93914,1.72192 0.28703,0.73352 0.61738,1.33367 0.7341,1.33367 0.11672,0 0.55579,-0.23587 0.97574,-0.52416 l 0.76354,-0.52416 0.82036,0.66795 c 0.45117,0.36736 0.82033,0.88567 0.82033,1.15177 0,0.2661 0.24422,0.48382 0.54273,0.48382 0.69723,0 2.13684,1.48145 2.49145,2.56388 0.19583,0.59781 0.62494,0.89636 1.4972,1.04168 0.75618,0.12599 1.32743,0.46479 1.49721,0.88796 0.15099,0.37634 0.56493,0.93502 0.91989,1.24151 l 0.64537,0.55725 -0.54337,2.11009 c -0.29886,1.16054 -0.89118,2.63496 -1.31626,3.27648 -0.42509,0.64152 -0.98008,1.89924 -1.2333,2.79492 -0.75218,2.66051 -1.43798,3.62948 -2.69811,3.81221 -1.09202,0.15835 -1.40828,0.0959 -3.33777,-0.65886 -0.50294,-0.19673 -1.18411,-0.2792 -1.51371,-0.18326 -0.3296,0.096 -1.38877,-0.25937 -2.35368,-0.7896 -0.96492,-0.53022 -2.17017,-0.96403 -2.67832,-0.96403 -0.62253,0 -0.98976,-0.23033 -1.12578,-0.70607 -0.11103,-0.38833 -0.32375,-0.9234 -0.4727,-1.18906 -0.16128,-0.28762 0.26457,-1.11269 1.05279,-2.03972 1.91092,-2.24748 2.85778,-2.96886 3.89685,-2.96886 0.50482,0 1.02499,-0.21181 1.15596,-0.4707 0.13478,-0.26643 0.75106,-0.47071 1.42004,-0.47071 1.27084,0 2.98088,-1.11318 2.98088,-1.94044 0,-0.5311 -1.54675,-0.79956 -4.34368,-0.75391 l -1.65472,0.027 0.12758,0.90436 0.12759,0.90437 -0.86082,-0.17075 c -0.93363,-0.18521 -3.32443,0.57609 -3.32443,1.05858 0,0.59505 -2.0947,2.79502 -2.66127,2.79502 -0.32274,0 -0.7099,-0.45477 -0.86823,-1.01986 -0.15716,-0.56093 -0.50574,-1.23169 -0.77462,-1.49057 -1.54242,-1.4851 -1.75429,-4.56892 -0.42003,-6.11361 0.36223,-0.41938 0.54731,-0.89912 0.41125,-1.06611 -0.13604,-0.16698 0.3133,-0.60643 0.99856,-0.97657 0.68525,-0.37013 1.24592,-0.81047 1.24592,-0.97853 0,-0.16806 -0.36015,-0.59879 -0.80031,-0.95718 -0.55397,-0.45106 -0.68954,-0.80922 -0.44045,-1.16366 0.19793,-0.2816 0.54838,-0.97095 0.77879,-1.53188 l 0.41892,-1.01986 h -0.57459 c -0.31603,0 -0.67946,0.12872 -0.80763,0.28602 -0.2697,0.33103 -1.88519,-0.0217 -5.20687,-1.13677 -2.29264,-0.76965 -4.95241,-0.88988 -5.23424,-0.2366 -0.077,0.17864 1.25176,0.77878 2.9529,1.33367 1.70114,0.5549 3.29025,1.0089 3.53136,1.0089 0.54273,0 1.24528,1.34528 1.24528,2.38455 0,0.55269 -0.41487,0.96034 -1.44789,1.42268 l -1.4479,0.64802 v 1.51759 c 0,0.83468 -0.18261,1.88192 -0.40578,2.32721 l -0.4058,0.80961 -1.55919,-0.1796 -1.55922,-0.17961 -2.24729,1.13601 c -1.5504,0.78372 -2.53327,1.08156 -3.16947,0.96042 l -0.92216,-0.17557 -0.28071,-1.26029 c -0.27612,-1.23977 -1.16947,-1.927 -2.15556,-1.6582 -0.27583,0.0752 -0.8343,-0.0101 -1.24105,-0.18976 l -0.73953,-0.32647 1.35745,-0.01 c 1.4982,-0.0105 2.05167,-0.59124 1.40237,-1.47135 -0.28879,-0.39146 -0.24545,-0.80294 0.14494,-1.37559 0.30635,-0.44938 0.84851,-1.00058 1.20481,-1.22488 0.35628,-0.22431 0.64778,-0.61902 0.64778,-0.87713 0,-0.25812 0.51194,-0.9417 1.13764,-1.51907 0.62568,-0.57736 1.56853,-1.47663 2.09517,-1.99839 l 0.95753,-0.94862 -0.73646,-0.94573 c -0.87101,-1.1185 -1.48704,-1.22876 -1.33896,-0.23968 0.0698,0.46561 -0.48373,1.18691 -1.62512,2.11804 -0.95196,0.77659 -1.73084,1.51795 -1.73084,1.64747 0,0.12954 -0.35964,0.23549 -0.7992,0.23549 -0.43956,0 -1.18179,0.40759 -1.6494,0.90575 -1.09508,1.16657 -3.29731,1.53366 -4.77993,0.79676 l -1.04513,-0.51946 0.001,-1.29758 c 10e-4,-1.32462 1.26236,-3.33731 2.09055,-3.33731 0.24723,0 1.28868,-0.37305 2.31431,-0.82898 l 1.86478,-0.82899 -0.55006,-0.26452 c -0.30255,-0.14549 -1.14158,-0.2667 -1.86454,-0.26934 -0.91421,-0.003 -1.56213,0.23407 -2.12794,0.77971 -0.44744,0.43149 -1.01066,0.78451 -1.25162,0.78451 -0.24095,0 -0.9025,0.16051 -1.47012,0.35669 l -1.03202,0.3567 0.2267,0.85983 0.22671,0.85984 -1.34613,0.50938 c -0.74036,0.28018 -1.57496,0.50941 -1.85467,0.50941 -0.55396,0 -0.54631,1.33931 0.0132,2.31523 l 0.33788,0.58931 -0.99535,0.57772 c -0.54746,0.31774 -1.18152,0.55112 -1.40905,0.51864 -0.77286,-0.11038 -2.68894,1.08937 -2.68894,1.68367 0,0.32534 -0.20583,0.59152 -0.45738,0.59152 -0.25157,0 -1.01048,0.35303 -1.68648,0.78451 -1.12862,0.72039 -3.23402,1.08651 -3.23402,0.56239 0,-0.12217 0.68599,-0.75504 1.52442,-1.40636 0.83845,-0.65133 1.38585,-1.28937 1.21648,-1.41785 -0.16938,-0.12849 -0.995,0.0454 -1.8347,0.38649 l -1.52672,0.62012 -0.13655,0.90735 c -0.0751,0.49905 0.06,0.99955 0.30042,1.11222 0.61639,0.28898 -0.24455,2.53059 -0.97196,2.53059 -0.35753,0 -0.48402,-0.2272 -0.34731,-0.62381 0.33472,-0.97089 -0.96282,-1.14956 -1.98282,-0.27301 l -0.86104,0.73992 0.24,-0.5719 c 0.33454,-0.79723 -0.45355,-1.78164 -1.42634,-1.78164 -0.93226,0 -1.02722,0.3757 -0.31395,1.24207 l 0.49884,0.60594 -1.13337,0.79677 -1.13336,0.79676 0.66326,0.76787 c 0.36478,0.42232 1.08737,0.97865 1.60573,1.23629 l 0.94249,0.46844 -0.12177,1.51464 c -0.067,0.83306 -0.31787,2.00796 -0.55756,2.61088 -0.23967,0.60294 -0.43578,1.54779 -0.43578,2.09966 0,0.55189 -0.20725,1.10059 -0.46056,1.21935 -0.2533,0.11874 -0.81209,0.79783 -1.24175,1.50908 -0.42966,0.71124 -1.33536,1.85803 -2.01268,2.5484 -0.67732,0.69036 -1.43402,1.60824 -1.68158,2.03972 -0.24755,0.43148 -0.79761,1.06693 -1.22236,1.41212 -0.42474,0.34518 -0.9662,1.01594 -1.20324,1.49058 l -0.43101,0.86295 h -1.44358 c -1.96932,0 -2.47311,-0.74912 -1.84093,-2.7375 0.31755,-0.99879 1.01054,-1.9216 2.07714,-2.76596 1.75647,-1.39051 2.08591,-2.19732 0.79243,-1.94073 -1.31198,0.26026 -2.29448,-0.52748 -2.29448,-1.83964 0,-0.64314 -0.2103,-1.2241 -0.46732,-1.291 -0.60213,-0.15673 -2.76679,2.62826 -2.3963,3.08301 0.15436,0.18946 0.0409,0.45691 -0.25223,0.59433 -0.2931,0.13741 -0.62123,1.05769 -0.72917,2.04505 l -0.19627,1.79523 -0.80886,0.16046 c -0.5823,0.11551 -0.7583,0.36115 -0.62829,0.87697 l 0.18057,0.71653 -0.83085,0.1648 c -0.9197,0.18245 -2.11249,-0.20158 -3.41606,-1.09982 l -0.85744,-0.59082 -2.03836,0.29047 c -1.12109,0.15977 -2.55135,0.21484 -3.17835,0.12241 -1.31152,-0.19336 -2.37629,0.34408 -2.37629,1.19943 v 0.58918 h 2.31895 2.31897 l 1.18644,0.75729 c 0.74729,0.47698 1.49754,0.69558 2.02691,0.59057 0.46227,-0.0917 1.10886,0.002 1.43691,0.20876 0.32802,0.20651 1.1182,0.33062 1.75594,0.27582 0.75462,-0.0649 1.12342,0.0361 1.05612,0.28917 -0.057,0.21384 -0.14997,0.56199 -0.20685,0.77363 -0.0569,0.21163 0.31543,0.43328 0.82737,0.49253 0.51192,0.0593 0.93078,0.21258 0.93078,0.34075 0,0.12818 -0.37666,0.82442 -0.83703,1.54721 l -0.83702,1.31415 h -7.02296 c -4.70177,0 -7.02295,-0.1107 -7.02295,-0.33495 0,-0.19214 0.35274,-0.25003 0.82737,-0.13575 0.49627,0.11948 0.82735,0.0565 0.82735,-0.15766 0,-0.40178 -2.28278,-3.00681 -2.88037,-3.28697 -0.21317,-0.0999 -0.59903,0.11801 -0.85746,0.48431 l -0.46987,0.666 0.8628,0.69668 c 0.92916,0.75025 1.13271,1.44073 0.42471,1.44073 -0.24095,0 -0.3479,0.11071 -0.23767,0.246 0.11025,0.1353 -1.10795,0.28653 -2.70707,0.33605 -2.09407,0.0649 -2.826,-0.01 -2.61626,-0.26739 z m 25.24083,-19.87311 c 0.34025,-0.5174 0.52198,-1.01404 0.40383,-1.10368 -0.31276,-0.23724 -3.09823,1.88399 -3.09823,2.3594 v 0.40242 l 1.03786,-0.3587 c 0.57084,-0.1973 1.31627,-0.78204 1.65654,-1.29944 z m 7.74299,-6.17351 c 0.48844,-0.34519 0.69566,-0.6276 0.46051,-0.6276 -0.23517,0 -0.76453,0.28241 -1.17633,0.6276 -0.41182,0.34519 -0.61905,0.62761 -0.46052,0.62761 0.15854,0 0.6879,-0.28242 1.17634,-0.62761 z m 1.55942,-1.41211 c 0,-0.0863 -0.0931,-0.15691 -0.20684,-0.15691 -0.11373,0 -0.20684,0.0706 -0.20684,0.15691 0,0.0863 0.0931,0.15689 0.20684,0.15689 0.11376,0 0.20684,-0.0706 0.20684,-0.15689 z m 4.96421,-1.88283 c 0,-0.0863 -0.0931,-0.15691 -0.20684,-0.15691 -0.11376,0 -0.20684,0.0706 -0.20684,0.15691 0,0.0863 0.0931,0.1569 0.20684,0.1569 0.11374,0 0.20684,-0.0706 0.20684,-0.1569 z m 46.95307,-9.88485 c 0.14062,-0.17258 0.0584,-0.31381 -0.18243,-0.31381 -0.24096,0 -0.4381,0.14123 -0.4381,0.31381 0,0.17259 0.0821,0.31381 0.18243,0.31381 0.10028,0 0.29747,-0.14122 0.4381,-0.31381 z m -40.74782,-1.41212 c 0,-0.0863 -0.0931,-0.1569 -0.20684,-0.1569 -0.11375,0 -0.20684,0.0706 -0.20684,0.1569 0,0.0863 0.0931,0.15691 0.20684,0.15691 0.11374,0 0.20684,-0.0706 0.20684,-0.15691 z m 21.12505,-0.79555 c 1.01814,-0.41333 1.02117,-0.81333 0.007,-1.01437 -0.86318,-0.17123 -1.68962,0.28428 -1.68962,0.93128 0,0.49189 0.60172,0.52162 1.68193,0.0832 z m -0.64772,-2.49939 c 0.14061,-0.17259 0.0584,-0.3138 -0.18243,-0.3138 -0.24095,0 -0.4381,0.14121 -0.4381,0.3138 0,0.17259 0.0821,0.3138 0.18243,0.3138 0.10028,0 0.29748,-0.14121 0.4381,-0.3138 z m 3.30947,-2.82424 c -0.74547,-0.62485 -2.27526,-0.86808 -2.27526,-0.36176 0,0.30744 1.58827,0.93691 2.44278,0.96813 l 0.58124,0.0213 z m 3.30946,-0.31381 c -0.76853,-0.64418 -2.27525,-0.86232 -2.27525,-0.32939 0,0.40088 1.26205,0.93567 2.23595,0.94746 l 0.78806,0.01 z m 7.44629,-3.45184 c -0.1406,-0.17258 -0.71007,-0.3138 -1.26544,-0.3138 -0.5554,0 -1.0098,0.14122 -1.0098,0.3138 0,0.1726 0.56945,0.31381 1.26546,0.31381 0.7383,0 1.15896,-0.13074 1.00978,-0.31381 z m 11.78999,-3.38895 c 0,-0.40404 -0.45324,-0.3058 -1.54675,0.33532 -0.28191,0.16528 -0.41289,0.42282 -0.2911,0.57232 0.30053,0.36885 1.83785,-0.39037 1.83785,-0.90764 z m -4.34367,-2.57334 c -0.14063,-0.1726 -0.43085,-0.3138 -0.64494,-0.3138 -0.2141,0 -0.38927,0.1412 -0.38927,0.3138 0,0.17261 0.29021,0.3138 0.64493,0.3138 0.35472,0 0.52989,-0.14119 0.38928,-0.3138 z m 9.10103,-0.62761 c 0.14061,-0.17258 0.0584,-0.3138 -0.18242,-0.3138 -0.24096,0 -0.4381,0.14122 -0.4381,0.3138 0,0.1726 0.0821,0.31381 0.18242,0.31381 0.10028,0 0.29748,-0.14121 0.4381,-0.31381 z m 13.44125,-11.28869 0.61708,-0.29592 -0.47761,-0.3623 c -0.56631,-0.42958 -1.37707,-0.12839 -1.37707,0.51157 0,0.52208 0.36466,0.56529 1.2376,0.14665 z m 18.61768,-11.14708 c 0.53353,-0.4308 0.88313,-0.8492 0.7769,-0.9298 -0.29229,-0.22171 -2.8438,1.02959 -2.8438,1.39465 0,0.57559 1.07883,0.33296 2.0669,-0.46485 z m 11.02824,-1.26999 c 0.13472,-0.26633 0.15552,-0.55207 0.0462,-0.635 -0.36854,-0.27957 -1.5582,0.24121 -1.5582,0.68211 0,0.59382 1.20676,0.55622 1.51198,-0.0471 z m 95.08308,-39.99653 c 0.14061,-0.17259 -0.1166,-0.31379 -0.57169,-0.31379 -0.45506,0 -0.94242,0.1412 -1.08304,0.31379 -0.14063,0.17261 0.11658,0.31381 0.57169,0.31381 0.45505,0 0.94242,-0.1412 1.08304,-0.31381 z m -56.1488,-1.19658 c 0.1008,-0.22932 -0.0884,-0.29945 -0.49126,-0.18217 -0.3603,0.10488 -0.65509,0.32855 -0.65509,0.49706 0,0.41248 0.94021,0.15419 1.14635,-0.31489 z m 58.83775,-4.13809 c 0,-0.60936 -0.70676,-1.13751 -1.11142,-0.83054 -0.1259,0.0955 -0.10818,0.53909 0.0396,0.98566 0.29581,0.89409 1.07176,0.78178 1.07176,-0.15512 z m -51.53496,-0.25335 c 1.12036,-0.46473 2.10615,-1.00543 2.19062,-1.20154 0.0845,-0.19613 -0.39489,-0.50164 -1.0653,-0.67891 l -1.2189,-0.32232 -0.87068,0.46259 c -0.76367,0.40576 -2.107,1.96691 -2.107,2.44866 0,0.36153 1.1077,0.10602 3.07126,-0.70848 z m 51.53496,-2.51491 c 0,-0.12034 -0.3637,-0.3911 -0.80819,-0.60167 -0.50886,-0.24107 -0.90095,-0.26902 -1.05862,-0.0755 -0.13776,0.16906 -0.16053,0.41773 -0.0506,0.55261 0.25274,0.31022 1.91744,0.41835 1.91744,0.12455 z m -50.29349,-1.03539 c -0.2681,-0.32905 -1.00326,-0.0649 -1.00326,0.36048 0,0.15699 0.27817,0.20446 0.61815,0.1055 0.33998,-0.099 0.51328,-0.30865 0.38511,-0.46598 z m 50.98294,-4.87828 c -0.15166,-0.11506 -0.39988,-0.11506 -0.55157,0 -0.15168,0.11508 -0.0275,0.20921 0.27579,0.20921 0.30338,0 0.42747,-0.0941 0.27578,-0.20921 z m 0,-2.19662 c -0.15166,-0.11506 -0.39988,-0.11506 -0.55157,0 -0.15168,0.11506 -0.0275,0.20921 0.27579,0.20921 0.30338,0 0.42747,-0.0941 0.27578,-0.20921 z m -28.96355,-13.45659 c 0.7603,-0.43991 1.77537,-1.46369 2.25568,-2.27508 0.98386,-1.66203 2.31264,-2.88739 3.13109,-2.88739 0.59967,0 0.65049,0.17777 0.58324,2.03974 l -0.0453,1.25521 0.61329,-0.82575 c 0.33732,-0.45418 0.88613,-0.90517 1.21961,-1.00224 0.33345,-0.0971 1.22333,0.14308 1.97747,0.53368 l 1.37118,0.71019 -0.12397,0.86509 -0.12397,0.86508 0.95137,-0.10247 0.95138,-0.10248 -0.15916,-0.62745 c -0.22808,-0.89932 -0.14898,-2.92184 0.17507,-4.47623 l 0.27901,-1.33836 -1.27284,-0.33658 c -1.42139,-0.37586 -2.53838,-1.76381 -2.53838,-3.15412 0,-0.49126 -0.1645,-0.8932 -0.36556,-0.8932 -0.55337,0 -3.21791,2.33456 -4.00789,3.51155 -0.38339,0.57125 -1.47037,1.88588 -2.4155,2.92144 -0.94512,1.03556 -1.96766,2.34176 -2.27227,2.90269 -0.30464,0.56093 -0.71745,1.01986 -0.91738,1.01986 -0.19992,0 -0.36349,0.20481 -0.36349,0.45512 0,0.2503 -0.30538,0.58475 -0.67861,0.74319 -0.37323,0.15844 -0.5484,0.44789 -0.38927,0.64321 0.15913,0.19531 0.4004,0.35511 0.53614,0.35511 0.13574,0 0.86887,-0.35991 1.62917,-0.79981 z m 28.47825,-1.00456 c -0.16391,-0.30203 -0.3917,-0.79628 -0.50619,-1.09831 -0.21793,-0.57494 -0.93901,-0.76702 -0.93901,-0.25013 0,0.16447 0.21603,0.65873 0.48009,1.09832 0.53276,0.887 1.4381,1.12162 0.96511,0.25012 z m -2.85002,-7.52477 c -0.4205,-0.31898 -0.76747,0.16127 -0.42244,0.58474 l 0.324,0.39767 0.17419,-0.3964 c 0.0957,-0.21803 0.0617,-0.48174 -0.0757,-0.58601 z m 4.68734,-2.4054 c -0.24114,-0.98949 -0.97135,-2.43652 -1.62273,-3.21564 -0.65134,-0.77911 -1.32737,-2.0057 -1.50225,-2.72576 -0.17488,-0.72008 -0.3284,-2.72134 -0.34117,-4.44726 -0.0129,-1.72593 -0.20174,-3.20865 -0.41994,-3.29495 -0.58242,-0.23034 -1.05164,1.62339 -1.31057,5.17777 -0.41771,5.73392 -0.4004,6.06698 0.34483,6.63228 l 0.70041,0.53131 0.62145,-0.39123 0.62145,-0.39123 0.64036,1.16256 c 0.3522,0.63942 0.64036,1.25992 0.64036,1.37889 0,0.30701 1.70411,1.65702 1.90208,1.50685 0.0903,-0.0685 -0.0331,-0.9341 -0.27428,-1.92359 z M 235.99382,418.42819 c 0.16083,-0.90611 0.35527,-1.69933 0.43207,-1.76272 0.0769,-0.0634 0.9785,-0.18698 2.00379,-0.27464 l 1.86417,-0.15939 1.29064,0.82379 c 0.70985,0.45311 1.4217,0.8238 1.58188,0.8238 0.39556,0 1.26851,1.80212 0.97924,2.02156 -0.12694,0.0963 -2.07884,0.17508 -4.33751,0.17508 h -4.10672 z m 9.29992,1.49058 c 0,-0.0863 0.0931,-0.15691 0.20684,-0.15691 0.11376,0 0.20684,0.0706 0.20684,0.15691 0,0.0863 -0.0931,0.1569 -0.20684,0.1569 -0.11373,0 -0.20684,-0.0706 -0.20684,-0.1569 z m 1.99085,-0.0574 c 0.29864,-0.0907 0.65543,-0.0795 0.7929,0.0247 0.13746,0.10426 -0.10689,0.17843 -0.54296,0.1648 -0.48192,-0.015 -0.57995,-0.0894 -0.24994,-0.18959 z m 4.48379,-1.26607 c -1.05826,-0.81424 -1.92411,-1.56893 -1.92411,-1.67712 0,-0.10817 -0.44144,-0.58637 -0.98096,-1.06266 l -0.98097,-0.86597 -0.83586,0.33935 -0.83588,0.33933 -1.27758,-0.48346 c -0.70266,-0.26589 -1.39631,-0.62919 -1.54141,-0.8073 -0.24231,-0.29738 0.21011,-1.28803 1.1237,-2.46065 0.2017,-0.2589 0.53072,-0.75313 0.73116,-1.09831 0.20043,-0.34519 1.12991,-1.39961 2.06551,-2.34316 1.5897,-1.60321 2.47921,-3.39335 1.98661,-3.99796 -0.11775,-0.14445 0.49887,-1.06708 1.37013,-2.05027 2.14775,-2.42364 2.89868,-3.6265 2.89868,-4.64312 0,-0.57244 0.2563,-0.90743 0.77264,-1.00985 0.44464,-0.0883 0.87159,-0.53669 1.00577,-1.05647 0.12824,-0.49676 0.39072,-1.38833 0.58334,-1.98127 l 0.35021,-1.07807 1.19409,-0.24225 c 0.65677,-0.13323 1.36029,-0.16435 1.56337,-0.0691 0.2031,0.0952 0.31213,0.74565 0.24228,1.44541 -0.0809,0.81057 0.0607,1.32181 0.39014,1.40871 0.30736,0.0811 0.51711,-0.13276 0.51711,-0.52719 0,-0.36498 0.32577,-0.75457 0.72394,-0.86574 0.39817,-0.11116 1.12526,-0.49505 1.61577,-0.8531 0.4905,-0.35805 1.18859,-0.83309 1.55131,-1.05563 0.36271,-0.22254 0.65949,-0.73584 0.65949,-1.14067 0,-0.44395 0.42141,-0.9455 1.0619,-1.26384 l 1.06189,-0.52779 0.69626,0.41326 c 1.46647,0.87038 7.93572,6.01896 7.93572,6.31565 0,0.17148 -1.02386,1.07615 -2.27526,2.01039 -1.25138,0.9342 -2.27525,1.90434 -2.27525,2.15583 0,0.2515 -0.46182,0.61689 -1.02627,0.81197 -0.56443,0.19508 -1.13242,0.60846 -1.26221,0.91863 -0.30632,0.73211 -1.5988,1.03323 -2.63291,0.61343 -0.44869,-0.18216 -1.3865,-0.3312 -2.08404,-0.3312 -0.71667,0 -1.62809,-0.27295 -2.0956,-0.6276 -0.45506,-0.34518 -0.98108,-0.62761 -1.16895,-0.62761 -0.18786,0 -0.76229,0.33971 -1.27649,0.7549 l -0.93492,0.75491 0.47552,0.67401 c 0.60087,0.85166 2.82275,1.89294 4.04247,1.89446 1.2543,0.002 1.17824,0.55671 -0.13865,1.01187 l -1.06943,0.36961 0.23172,0.87887 c 0.13319,0.50518 0.0515,0.87886 -0.19216,0.87886 -0.69174,0 -2.8649,-0.93473 -2.8649,-1.23227 0,-0.38114 -2.88095,-1.63595 -3.30239,-1.43838 -0.1887,0.0885 -0.2525,0.42366 -0.14175,0.74487 0.12073,0.35028 -0.0603,0.6602 -0.45253,0.77435 -0.81603,0.23754 -0.85989,0.83764 -0.0612,0.83764 0.32597,0 0.71082,0.28242 0.85525,0.6276 0.14442,0.3452 0.52463,0.62762 0.8449,0.62762 h 0.58231 l -0.2518,0.95499 -0.25178,0.955 0.81852,0.69247 c 0.49384,0.4178 0.84162,1.19038 0.87675,1.9477 0.0509,1.09531 -0.40047,3.83152 -0.99633,6.04073 l -0.19044,0.70606 h -1.79115 -1.79114 z m 12.77369,1.15184 c 0.13598,-0.1669 -0.0293,-0.38398 -0.36752,-0.48239 -1.33158,-0.38761 -1.08616,-1.13243 0.84135,-2.55348 l 1.93547,-1.42689 -0.77264,-0.42857 c -0.42495,-0.2357 -1.00912,-0.42855 -1.29815,-0.42855 -0.55803,0 -1.57085,-2.34198 -1.20632,-2.78939 0.11853,-0.14547 0.66261,-0.19965 1.2091,-0.12041 0.68569,0.0994 1.18173,-0.0596 1.60066,-0.51337 l 0.60707,-0.65746 1.31363,0.34737 1.31362,0.34736 0.62943,-0.39623 0.62941,-0.39626 0.47889,0.36327 c 0.26338,0.1998 0.76744,0.36387 1.1201,0.36462 0.57655,6.6e-4 3.38118,1.71517 5.6296,3.44031 0.46835,0.35937 0.98248,0.55407 1.14252,0.43268 0.3816,-0.28947 -0.0929,-2.23706 -0.80525,-3.30508 -0.30918,-0.46357 -1.58741,-1.5143 -2.84049,-2.33494 -1.49049,-0.97611 -2.27834,-1.7336 -2.27834,-2.19055 0,-0.39979 -0.48476,-0.96637 -1.13358,-1.32488 l -1.13359,-0.62639 1.04949,-0.73345 c 0.57722,-0.40341 1.91125,-1.3069 2.96451,-2.00778 1.33361,-0.88742 1.81026,-1.4029 1.56995,-1.69783 -0.18978,-0.23295 -0.2063,-0.64799 -0.0367,-0.92232 1.68897,-2.73224 1.95602,-3.01092 3.13204,-3.26833 0.68259,-0.1494 1.98569,-0.54094 2.89578,-0.8701 1.73065,-0.62591 3.09351,-0.72063 5.68816,-0.3953 l 1.55131,0.19451 v 0.56994 c 0,0.31347 0.46538,1.2339 1.03421,2.0454 1.10381,1.57477 1.32443,2.91915 0.57262,3.48944 -0.28495,0.21615 -1.29229,0.28511 -2.63237,0.18018 -1.39121,-0.10891 -2.27414,-0.0431 -2.45861,0.18334 -0.1583,0.1943 -0.81096,0.35327 -1.45033,0.35327 h -1.16252 l -0.24439,1.14243 c -0.13442,0.62834 -0.0829,1.37121 0.11427,1.65083 0.19725,0.2796 0.26118,0.8952 0.14203,1.36799 l -0.21662,0.85963 h 0.86844 c 0.47764,0 1.38358,-0.34438 2.01321,-0.76529 3.59405,-2.40258 4.30255,-2.77025 4.72326,-2.45113 0.98197,0.74488 0.53653,5.2509 -0.7414,7.5002 -0.309,0.54385 -0.56182,1.36027 -0.56182,1.81423 0,0.45395 -0.27923,0.90666 -0.62053,1.00601 -0.34127,0.0994 -0.62051,0.50207 -0.62051,0.89497 0,0.46034 -0.30698,0.77522 -0.86334,0.88559 -1.10185,0.21857 -0.89749,1.3063 0.25053,1.3334 1.63167,0.0385 2.26753,0.48249 2.26753,1.58325 v 1.06474 l -8.79077,-0.0427 c -4.83492,-0.0236 -8.38542,-0.1026 -7.89002,-0.17575 1.12647,-0.16634 1.95034,-0.8912 1.66162,-1.46194 -0.31232,-0.61739 -2.41194,-0.85647 -3.38973,-0.38599 -0.45506,0.21896 -1.32689,0.49138 -1.93742,0.60538 -0.61054,0.11399 -1.2281,0.48936 -1.37236,0.83415 -0.29726,0.71047 -0.65995,0.78501 -1.3335,0.27408 l -0.46508,-0.35279 -1.28657,0.34021 c -0.75949,0.20085 -1.18527,0.2159 -1.03932,0.0369 z m 24.46422,-0.19441 c -0.15169,-0.11506 -0.3999,-0.11506 -0.55157,0 -0.1517,0.11506 -0.0275,0.2092 0.27579,0.2092 0.30336,0 0.42746,-0.0941 0.27578,-0.2092 z m 8.82525,0.15097 c 0,-0.20461 -0.38827,-0.68553 -0.86282,-1.0687 l -0.8628,-0.69668 0.48698,-0.69026 c 0.29742,-0.42157 0.37419,-1.13548 0.19717,-1.83398 -0.1594,-0.62905 -0.35449,-1.9204 -0.43351,-2.86965 -0.0791,-0.94925 -0.23179,-2.60631 -0.33948,-3.68232 -0.10767,-1.07602 -0.0454,-2.02687 0.13826,-2.113 0.45936,-0.21535 3.8592,1.79355 4.71799,2.7878 0.38523,0.446 0.97108,0.81089 1.30188,0.81089 1.24098,0 1.71929,1.30843 1.60596,4.39327 -0.0601,1.63961 -0.13391,3.19295 -0.16374,3.45184 -0.0299,0.25888 0.074,0.78843 0.2308,1.17676 l 0.28505,0.70606 h -3.15088 c -2.15355,0 -3.15086,-0.11775 -3.15086,-0.37203 z m 8.37708,0.15572 c 0.39817,-0.0789 0.73629,-0.38028 0.75136,-0.66966 0.0975,-1.87195 0.40982,-5.19877 0.49399,-5.26263 0.0555,-0.042 0.58877,-0.16936 1.18513,-0.2829 l 1.08432,-0.20645 1.81061,1.46304 c 0.99585,0.80467 1.96561,1.67104 2.15504,1.92528 0.21615,0.2901 0.0228,0.98122 -0.51922,1.85594 l -0.86363,1.39369 -3.41077,-0.0365 c -1.87592,-0.0201 -3.08501,-0.10099 -2.68683,-0.17992 z m 13.3067,-0.13994 c -0.15962,-0.19594 -0.35336,-1.07851 -0.4305,-1.96128 -0.0771,-0.88276 -0.19021,-1.95805 -0.25126,-2.38953 l -0.11103,-0.78451 1.53701,-0.0968 1.53702,-0.0968 1.75389,-1.39596 1.75391,-1.39597 1.3211,0.18801 1.32112,0.18799 0.44802,-0.5781 0.44803,-0.57812 0.41493,0.47071 c 0.57777,0.65544 0.53524,0.12224 -0.0466,-0.58451 -0.70365,-0.8547 -0.12694,-2.13602 1.06357,-2.36267 0.55561,-0.10579 1.13624,-0.50972 1.29027,-0.89766 0.38728,-0.97542 2.67905,-2.74506 3.55498,-2.74506 0.397,0 0.8436,-0.14947 0.99244,-0.33217 0.15262,-0.18732 0.77953,-0.2474 1.43751,-0.13777 0.68182,0.11359 1.53055,0.0233 2.04167,-0.21699 l 0.87479,-0.41139 0.37391,0.45594 c 0.20567,0.25075 0.26874,0.88621 0.14017,1.41212 -0.30744,1.25752 -0.31194,1.09775 0.07,2.49698 l 0.33494,1.22701 -0.73164,0.40581 -0.73164,0.40583 0.67318,1.27622 c 0.82278,1.55987 0.86502,2.94872 0.1042,3.42769 -0.31292,0.197 -0.80026,1.02626 -1.08296,1.84279 -0.8139,2.35077 -1.36219,3.16048 -2.26469,3.34443 -0.46241,0.0942 -4.31568,0.17327 -8.56283,0.17564 l -7.7221,0.004 -0.20865,-0.39225 -0.20866,-0.39226 -0.0326,0.39226 c -0.0408,0.48969 -0.71389,0.51169 -1.10146,0.0361 z m 23.61455,0.0424 c 0.14062,-0.17259 0.51293,-0.3138 0.82737,-0.3138 0.31442,0 0.68674,0.14121 0.82737,0.3138 0.14558,0.17867 -0.21069,0.3138 -0.82737,0.3138 -0.61669,0 -0.97296,-0.13513 -0.82737,-0.3138 z m 7.16189,0.0994 c 0.29863,-0.0907 0.65544,-0.0795 0.79289,0.0247 0.13746,0.10427 -0.10688,0.17843 -0.54295,0.16481 -0.48192,-0.015 -0.57996,-0.0894 -0.24994,-0.18959 z m 1.56971,-0.28201 c -0.33875,-0.66965 -0.31963,-0.75884 0.16259,-0.75884 0.22753,0 0.41369,0.19223 0.41369,0.42718 0,0.28087 0.33765,0.37823 0.98571,0.28426 0.54215,-0.0786 1.11161,0.0116 1.26546,0.20042 0.18192,0.22328 -0.21968,0.34335 -1.1483,0.34335 -0.92056,0 -1.51727,-0.17639 -1.67915,-0.49637 z m 3.47205,0.18257 c 0,-0.23013 0.1241,-0.32426 0.27579,-0.20921 0.15169,0.11507 0.15169,0.30334 0,0.41841 -0.15168,0.11507 -0.27579,0.0209 -0.27579,-0.2092 z m 1.45207,-0.005 c 0.14291,-0.17541 0.43314,-0.23768 0.64494,-0.13838 0.5738,0.269 0.4668,0.4573 -0.25985,0.4573 -0.35471,0 -0.528,-0.14351 -0.38509,-0.31892 z m 1.65056,0.005 c 0.14062,-0.17259 0.0811,-0.3138 -0.13224,-0.3138 -0.21334,0 -0.61687,-0.41929 -0.89669,-0.93175 l -0.50878,-0.93175 0.4586,-0.9979 c 0.25222,-0.54885 0.4527,-1.85941 0.44551,-2.91236 l -0.013,-1.91445 -0.91772,0.82006 c -0.50474,0.45104 -1.24807,1.28052 -1.65183,1.84325 l -0.73411,1.02319 -1.74799,-0.20624 c -0.96139,-0.11343 -1.9419,-0.40011 -2.17893,-0.63708 -0.31067,-0.31061 -0.63648,-0.34359 -1.16737,-0.11823 l -0.73642,0.31263 -0.74672,-0.51261 c -0.91895,-0.63086 -1.34898,-2.71839 -1.47493,-7.15972 -0.0933,-3.29069 0.19408,-4.13453 1.15886,-3.40269 0.25321,0.19207 0.59109,0.34923 0.75085,0.34923 0.56247,0 1.16445,-1.89859 0.82358,-2.59752 -0.21917,-0.44943 -0.1215,-1.08797 0.27459,-1.79574 1.04385,-1.86511 1.22232,-2.04283 1.94963,-1.94125 0.70902,0.0991 3.15664,-1.57019 3.60295,-2.4571 0.31234,-0.6207 2.1961,-1.37897 2.90971,-1.17123 0.30663,0.0892 0.9242,0.70815 1.37237,1.37536 0.44819,0.6672 0.92878,1.28369 1.06799,1.36998 0.26845,0.1664 0.69089,1.6345 0.99327,3.45184 0.56241,3.38017 1.65508,4.39302 2.60023,2.41031 l 0.50619,-1.06188 -0.66769,-1.21219 c -0.36723,-0.6667 -0.71467,-2.2057 -0.77209,-3.41999 l -0.10441,-2.20781 -1.09406,-1.61461 c -0.60174,-0.88801 -1.09405,-1.92168 -1.09405,-2.29699 0,-1.00295 2.36505,-3.46281 3.32935,-3.46281 0.44411,0 0.80749,0.14693 0.80749,0.32652 0,0.17956 0.41651,0.75385 0.92557,1.27616 l 0.92559,0.94965 1.34968,-0.19208 1.34967,-0.19207 v 1.08689 c 0,1.45804 0.35962,2.0796 1.20321,2.0796 0.45098,0 1.0198,0.57237 1.59482,1.60482 l 0.89381,1.60479 -0.84058,1.24985 c -0.4623,0.6874 -0.74254,1.3242 -0.62274,1.41508 0.11983,0.0909 1.50689,-0.85419 3.08241,-2.10014 2.04997,-1.62115 2.80601,-2.43532 2.65858,-2.86298 -0.23443,-0.68 0.67261,-0.8202 1.45699,-0.22521 l 0.49094,0.37242 0.96293,-0.68622 c 0.52962,-0.37742 1.18363,-0.68621 1.45337,-0.68621 0.68564,0 0.60097,-2.21655 -0.11194,-2.93016 l -0.57604,-0.57664 -2.70541,0.0158 c -2.94617,0.0172 -3.85436,-0.41759 -2.40125,-1.14948 l 0.8888,-0.44765 -0.42105,-0.59679 -0.42106,-0.59679 -1.01765,0.19375 c -0.56872,0.10828 -1.01766,0.0564 -1.01766,-0.11747 0,-0.34054 1.36288,-0.68719 2.72825,-0.69394 1.29892,-0.007 2.38699,-1.07407 2.07026,-2.03138 l -0.26376,-0.79715 h -1.81918 -1.81919 l -0.81422,-0.84788 c -0.54732,-0.56993 -1.20275,-0.85281 -1.99949,-0.86295 -0.80424,-0.0102 -1.1873,-0.17797 -1.19154,-0.52172 -0.0106,-0.88984 -1.0396,-1.54285 -2.10952,-1.33914 -1.19715,0.22792 -1.27667,-0.21155 -0.17506,-0.96779 0.44648,-0.30649 1.0192,-1.03401 1.2727,-1.61667 0.2535,-0.58267 0.81739,-1.2488 1.25309,-1.48029 0.93011,-0.49419 3.28133,-2.88729 3.28133,-3.33978 0,-0.33276 2.68498,-1.28996 3.72317,-1.32734 0.34129,-0.0123 1.179,0.0891 1.86156,0.22533 l 1.24106,0.24764 -0.72067,-0.61811 c -0.44885,-0.38496 -0.75558,-1.22677 -0.81323,-2.23183 l -0.0926,-1.61371 0.83985,-0.87476 c 0.46191,-0.4811 1.26334,-1.54551 1.78092,-2.36533 0.51759,-0.8198 1.0962,-1.49056 1.28577,-1.49056 0.18959,0 0.56519,-0.50677 0.83466,-1.12615 l 0.48996,-1.12614 0.8866,0.18044 c 0.48762,0.0993 1.18992,0.18237 1.56065,0.18473 1.03122,0.007 4.08236,2.40922 4.08963,3.22044 0.004,0.38853 0.17377,0.90706 0.37838,1.1523 l 0.37204,0.44589 1.05496,-0.52434 c 0.58024,-0.28839 1.32775,-0.52435 1.66116,-0.52435 h 0.6062 l -0.34021,0.86296 c -0.66911,1.69719 -2.92351,5.16375 -3.69126,5.67602 -0.43,0.28688 -0.98893,1.00163 -1.24208,1.58833 -0.56721,1.31456 -0.57553,1.60063 -0.0466,1.60063 0.22752,0 0.41368,-0.18832 0.41368,-0.41849 0,-0.38348 1.28375,-1.47325 4.40505,-3.73942 0.65373,-0.47463 1.46584,-0.86915 1.80467,-0.87673 0.33884,-0.008 1.32058,-0.20443 2.18166,-0.43746 l 1.56559,-0.42368 0.60625,0.45987 c 0.69375,0.52626 0.77224,0.92778 0.23097,1.18154 -0.20638,0.0968 -1.33557,1.62312 -2.50928,3.39192 -1.17371,1.76879 -2.64948,3.85144 -3.27947,4.62811 -2.88554,3.55737 -5.41912,7.19874 -5.41912,7.78858 0,0.35589 -0.17625,0.72972 -0.39167,0.83072 -0.21543,0.10099 -0.92415,0.78007 -1.57495,1.50908 -0.65081,0.72902 -1.83485,2.03154 -2.63121,2.8945 -0.79637,0.86296 -2.53399,2.91053 -3.86141,4.55016 -1.32741,1.63963 -3.22324,3.79307 -4.21298,4.78543 -0.98972,0.99235 -2.39288,2.61628 -3.11815,3.60874 -1.25292,1.71451 -4.65434,5.4756 -7.73352,8.55127 -0.77757,0.77667 -2.41796,3.00075 -3.64536,4.94242 l -2.23164,3.53029 h -1.25073 c -0.72852,0 -1.14403,-0.13102 -0.99511,-0.3138 z m 2.19536,-11.14836 c -0.12733,-0.0966 -0.35868,0.0775 -0.51403,0.38703 l -0.28246,0.56269 0.51405,-0.38703 c 0.28271,-0.21286 0.40982,-0.46608 0.28244,-0.56269 z m 6.32809,0.0722 c -0.53095,-0.40276 -1.0694,-0.0914 -0.6763,0.391 0.15227,0.1869 0.46636,0.25096 0.69798,0.14237 0.28256,-0.13247 0.27542,-0.308 -0.0217,-0.53337 z m -4.59345,-2.26057 c 0,-0.0863 -0.0931,-0.15692 -0.20685,-0.15692 -0.11375,0 -0.20684,0.0706 -0.20684,0.15692 0,0.0863 0.0931,0.15689 0.20684,0.15689 0.11374,0 0.20685,-0.0706 0.20685,-0.15689 z m 22.3389,-18.18555 c 0,-0.23844 0.23269,-0.49292 0.5171,-0.56554 l 0.51711,-0.13202 -0.56962,-0.52344 c -0.3893,-0.35773 -0.48597,-0.92028 -0.30537,-1.77695 0.14533,-0.68944 0.12242,-1.25276 -0.0508,-1.25183 -0.17334,6.6e-4 -1.21204,0.70679 -2.30824,1.56856 l -1.99307,1.56686 0.28631,0.70653 c 0.15748,0.38859 0.30972,0.71408 0.33834,0.72331 0.0286,0.009 0.51742,0.16815 1.08624,0.35316 1.16485,0.37886 2.4821,0.024 2.4821,-0.66864 z m -3.81796,-5.76165 c 0.09,-0.20495 -0.131,-0.37264 -0.49125,-0.37264 -0.36024,0 -0.655,0.22358 -0.655,0.49685 0,0.55416 0.89057,0.45765 1.14625,-0.12421 z m 3.40427,-8.54714 c 0,-0.68243 -1.28641,-2.18105 -1.8722,-2.18105 -0.84514,0 -0.77165,1.23505 0.11401,1.91631 0.81105,0.62381 1.75815,0.76643 1.75815,0.26474 z m -45.50518,45.67409 c 0,-0.0863 0.0931,-0.1569 0.20684,-0.1569 0.11376,0 0.20686,0.0706 0.20686,0.1569 0,0.0863 -0.0931,0.15691 -0.20686,0.15691 -0.11374,0 -0.20684,-0.0706 -0.20684,-0.15691 z M 235.36536,416.1531 c 0,-0.0863 0.0931,-0.1569 0.20682,-0.1569 0.11375,0 0.20684,0.0706 0.20684,0.1569 0,0.0863 -0.0931,0.15691 -0.20684,0.15691 -0.11374,0 -0.20682,-0.0706 -0.20682,-0.15691 z m -0.82737,-1.72592 c 0,-0.17259 0.18615,-0.31381 0.41366,-0.31381 0.22754,0 0.41371,0.14122 0.41371,0.31381 0,0.17259 -0.18617,0.31381 -0.41371,0.31381 -0.22751,0 -0.41366,-0.14122 -0.41366,-0.31381 z m 80.87509,-4.70706 c -0.41182,-0.3452 -1.09222,-0.62761 -1.51201,-0.62761 -0.41979,0 -0.76325,-0.18761 -0.76325,-0.41691 0,-0.22931 0.58631,-1.08836 1.30291,-1.90903 1.21995,-1.39711 1.6605,-2.41817 2.27425,-5.27103 0.13772,-0.64018 0.59922,-1.40343 1.02557,-1.6961 0.42633,-0.29269 0.77516,-0.72098 0.77516,-0.95179 0,-0.23082 0.55847,-0.79712 1.24104,-1.25846 0.68259,-0.46134 1.24105,-1.04003 1.24105,-1.28595 0,-0.52524 2.12386,-2.88448 2.60551,-2.89425 0.18164,-0.004 1.10085,-0.28913 2.0427,-0.63432 0.94185,-0.34518 1.89358,-0.6276 2.11495,-0.6276 0.55542,0 2.75156,1.90614 2.75156,2.38822 0,0.2158 0.41886,0.43748 0.9308,0.49265 l 0.93077,0.10026 0.13293,1.09832 c 0.0731,0.60408 0.30578,1.23246 0.51709,1.39644 0.2113,0.16394 0.38419,0.67409 0.38419,1.1336 0,0.77919 -1.15236,2.12185 -3.10261,3.61492 -1.32869,1.01723 -4.93422,4.22267 -5.29503,4.70749 -0.18194,0.24447 -0.68288,0.44451 -1.11321,0.44451 -0.43032,0 -0.89745,0.14121 -1.03807,0.3138 -0.14063,0.1726 -0.64098,0.31381 -1.1119,0.31381 -0.47093,0 -1.57743,0.49425 -2.45888,1.09832 -0.88145,0.60406 -1.94557,1.09831 -2.36471,1.09831 -0.41913,0 -1.09899,-0.28243 -1.51081,-0.6276 z m -22.28167,-6.74681 c -0.16116,-0.31857 0.0208,-0.4707 0.56328,-0.4707 0.5424,0 0.72445,0.15213 0.56329,0.4707 -0.13096,0.25889 -0.38443,0.47071 -0.56329,0.47071 -0.17883,0 -0.43231,-0.21182 -0.56328,-0.47071 z m 47.26692,-7.30511 c -0.36469,-0.297 -1.01383,-0.96363 -1.4425,-1.4814 -0.4287,-0.51779 -1.01418,-1.12774 -1.30109,-1.35548 l -0.52165,-0.41403 0.45603,-0.64637 0.45604,-0.64638 -1.03841,-0.66551 c -1.33562,-0.85597 -1.94371,-1.79403 -1.94371,-2.99839 v -0.96205 h -0.78311 c -0.97408,0 -1.21189,-0.46635 -0.97761,-1.91707 l 0.1829,-1.13256 1.40943,-0.50983 c 0.77519,-0.28042 1.40945,-0.72126 1.40945,-0.97965 0,-0.78266 1.95767,-0.937 3.61873,-0.28532 0.82441,0.32344 1.82013,0.82262 2.21273,1.1093 0.46579,0.34011 1.37345,0.51365 2.61221,0.49945 1.04413,-0.0119 1.8984,-0.12681 1.8984,-0.25518 0,-0.12837 -0.5409,-0.37644 -1.20202,-0.55125 -0.66111,-0.17483 -1.32687,-0.61624 -1.47945,-0.98093 -0.15259,-0.36467 -0.96131,-0.90676 -1.79719,-1.20462 -0.92843,-0.33087 -1.56812,-0.79808 -1.64406,-1.20081 -0.15605,-0.8275 1.33411,-2.71711 3.22695,-4.092 0.79633,-0.57843 2.04912,-1.50263 2.78395,-2.0538 l 1.33607,-1.0021 0.96585,0.68829 c 0.53123,0.37855 1.29938,0.68829 1.70702,0.68829 0.40764,0 1.10724,0.35302 1.55468,0.78451 0.44743,0.43148 1.042,0.78451 1.32127,0.78451 0.27926,0 0.7382,0.17652 1.01985,0.39225 0.28165,0.21575 1.48238,0.53573 2.66827,0.71108 l 2.15616,0.31882 0.12962,1.01486 0.12964,1.01484 h 1.008 c 0.63457,0 1.008,0.18016 1.008,0.48628 0,0.77234 -1.19455,2.36782 -3.01937,4.03274 l -1.68555,1.53786 0.0921,1.18424 0.0921,1.18423 -1.78395,1.39239 c -0.98118,0.7658 -2.20288,1.49322 -2.71488,1.61649 -0.51202,0.12327 -1.23867,0.58038 -1.61476,1.01582 -0.83829,0.97048 -2.14783,1.38218 -3.14058,0.98735 -0.51552,-0.20503 -0.66088,-0.49409 -0.47357,-0.94173 0.14862,-0.35524 0.033,-0.9821 -0.25688,-1.39301 l -0.52711,-0.74711 0.55797,-0.79085 c 0.40353,-0.57195 0.43285,-0.88577 0.10597,-1.13373 -1.17624,-0.89226 -1.94521,1.0367 -1.25656,3.15208 l 0.45068,1.38441 -0.89427,0.5493 c -0.53021,0.32568 -0.79438,0.7468 -0.64889,1.0344 0.29498,0.58313 -1.04792,3.0201 -1.66757,3.02617 -0.24062,0.002 -0.8098,0.0688 -1.26485,0.14774 -0.4601,0.0798 -1.12171,-0.0963 -1.49047,-0.39654 z m -107.23929,-0.27849 c -0.15169,-0.11506 -0.2758,-0.35513 -0.2758,-0.53346 0,-0.19663 0.19268,-0.17811 0.48953,0.0471 0.26925,0.20425 0.39334,0.4443 0.27579,0.53348 -0.11763,0.0892 -0.33785,0.068 -0.48952,-0.0471 z m 83.49509,-4.81166 c 0.14061,-0.1726 0.44181,-0.31381 0.66935,-0.31381 0.22753,0 0.29863,0.14121 0.15802,0.31381 -0.14063,0.17258 -0.44183,0.3138 -0.66936,0.3138 -0.22753,0 -0.29863,-0.14122 -0.15801,-0.3138 z m -44.54852,-0.52815 c 0.29861,-0.0906 0.65542,-0.0795 0.79289,0.0247 0.13745,0.10427 -0.10689,0.17845 -0.54297,0.16482 -0.48191,-0.015 -0.57994,-0.0894 -0.24992,-0.18959 z m 59.17868,-11.24308 c -0.59939,-0.24704 -1.21892,-0.84154 -1.3767,-1.32111 -0.1578,-0.47957 -0.58731,-1.12478 -0.95448,-1.43382 l -0.66759,-0.56187 0.77089,-1.00715 c 0.42399,-0.55393 1.02355,-1.12237 1.33238,-1.2632 0.74555,-0.34 2.77106,-2.76035 2.79431,-3.33905 0.0106,-0.25137 0.62566,-0.76801 1.3679,-1.14808 1.99701,-1.02256 5.88581,-5.17001 5.88838,-6.28 0.004,-1.46413 2.07634,-1.64528 3.3896,-0.29623 1.12124,1.15182 1.18194,4.19922 0.10007,5.01994 -0.35685,0.2707 -0.54596,0.73972 -0.42025,1.04228 0.3907,0.94035 -0.3757,2.41207 -1.46544,2.81406 -1.09907,0.40544 -1.78988,1.2534 -2.20985,2.71257 -0.16018,0.55652 -1.46495,1.77748 -3.43726,3.21649 -1.74847,1.2757 -3.36872,2.3138 -3.60056,2.30689 -0.23184,-0.007 -0.91193,-0.21469 -1.51131,-0.46172 z m 31.30992,-6.41162 c -0.40016,-0.33541 -1.23143,-0.69378 -1.84726,-0.79639 -0.61586,-0.1026 -1.89613,-0.81239 -2.84506,-1.57731 l -1.72531,-1.39077 0.24421,-0.92624 0.2442,-0.92623 -1.69044,0.32548 c -2.26939,0.43696 -3.04543,0.17469 -2.88639,-0.97547 0.0757,-0.54768 -0.16539,-1.16075 -0.59968,-1.52477 l -0.72634,-0.60882 0.65755,-0.41396 c 0.4124,-0.25963 0.56995,-0.67872 0.42261,-1.12408 -0.28075,-0.8485 0.30846,-1.18738 2.15285,-1.23824 0.74282,-0.0205 1.76668,-0.3258 2.27525,-0.6785 0.50859,-0.35269 1.48317,-0.87413 2.16575,-1.15878 0.68258,-0.28464 2.01048,-0.84554 2.9509,-1.24645 0.94043,-0.40091 1.9643,-0.63122 2.27528,-0.51179 0.31096,0.11942 1.21694,0.20487 2.01329,0.18988 l 1.44788,-0.0273 -0.12694,-1.00301 -0.12695,-1.00303 1.47139,0.18111 1.47138,0.18113 v -0.82557 c 0,-0.45406 0.23271,-0.82876 0.5171,-0.83266 0.28441,-0.004 1.15757,-0.56876 1.94036,-1.25524 0.78278,-0.68645 1.71868,-1.24809 2.07977,-1.24809 0.36111,0 1.06262,-0.21575 1.55891,-0.47945 l 0.90233,-0.47942 0.6434,0.74487 c 0.35386,0.40968 1.10892,0.90576 1.6779,1.10242 0.56897,0.19664 1.24311,0.70486 1.49809,1.12935 l 0.46358,0.7718 -1.09033,0.98293 c -0.59967,0.5406 -1.19889,1.36037 -1.33159,1.8217 -0.43208,1.50213 -0.54725,1.62329 -1.54296,1.62329 -0.90028,0 -2.35236,0.84331 -2.35236,1.36614 0,0.12013 0.46379,0.35217 1.03063,0.51565 l 1.03062,0.29724 -0.48905,0.87176 c -0.26897,0.47947 -0.81273,1.15419 -1.20834,1.49938 -1.20151,1.04837 -4.08497,4.37235 -4.08602,4.71027 -10e-4,0.48542 -1.94959,1.97128 -3.65555,2.78819 -0.84074,0.40259 -1.78139,0.96301 -2.0903,1.24538 -0.75101,0.68642 -1.82603,0.64822 -2.71442,-0.0964 z m 5.14981,-8.50903 c 0,-0.35537 -0.18615,-0.55885 -0.41368,-0.45219 -0.22753,0.10667 -0.41368,0.39742 -0.41368,0.64614 0,0.2487 0.18615,0.45218 0.41368,0.45218 0.22753,0 0.41368,-0.29076 0.41368,-0.64613 z m 4.23711,-1.75441 c 0.17239,-0.0808 0.31342,-0.42102 0.31342,-0.75603 0,-0.96226 -1.70155,-0.72768 -2.87476,0.39634 l -1.01318,0.9707 1.63056,-0.23204 c 0.8968,-0.12762 1.77159,-0.29816 1.94396,-0.37897 z m 2.38182,-1.05132 c 0,-0.17258 -0.18615,-0.3138 -0.41367,-0.3138 -0.22753,0 -0.41368,0.14122 -0.41368,0.3138 0,0.17261 0.18615,0.31381 0.41368,0.31381 0.22752,0 0.41367,-0.1412 0.41367,-0.31381 z m -11.16944,-0.62759 c 0,-0.1726 -0.27923,-0.31381 -0.62052,-0.31381 -0.34129,0 -0.62053,0.14121 -0.62053,0.31381 0,0.17259 0.27924,0.31379 0.62053,0.31379 0.34129,0 0.62052,-0.1412 0.62052,-0.31379 z m -39.4532,11.69912 -1.1875,-0.47267 0.2488,-1.37687 0.24878,-1.37687 h -2.0114 -2.0114 l -1.08331,-1.07738 c -1.06334,-1.05751 -1.42164,-2.06066 -0.73604,-2.06066 0.19102,0 0.56566,-0.36355 0.83255,-0.8079 l 0.48527,-0.80789 -0.7147,-0.91777 -0.71468,-0.91777 0.60608,-0.43373 c 0.62795,-0.44936 5.00673,-1.57768 7.28595,-1.87742 l 1.30197,-0.17123 0.26809,1.08403 c 0.31829,1.287 1.2793,1.43381 1.96061,0.29952 0.25917,-0.43148 0.62749,-0.78451 0.8185,-0.78451 0.191,0 0.34727,-0.32842 0.34727,-0.72982 0,-0.88295 1.5951,-2.09443 2.75768,-2.09443 0.46351,0 1.42715,-0.42363 2.1414,-0.94142 0.71427,-0.51776 1.6402,-0.9414 2.05767,-0.9414 0.41745,0 1.19624,0.35303 1.73061,0.78451 l 0.97159,0.78451 -0.96491,0.77912 c -0.53071,0.42852 -1.31556,0.86353 -1.74414,0.96672 -0.5375,0.1294 -0.70258,0.37076 -0.53217,0.77805 0.39124,0.93508 -0.50322,1.86937 -1.78972,1.86937 -1.30779,0 -2.97328,0.78216 -2.97328,1.39633 0,0.23064 -0.27923,0.50063 -0.62052,0.59998 -0.34129,0.0994 -0.62053,0.34815 -0.62053,0.55292 0,0.23357 0.28189,0.17878 0.75653,-0.14706 0.48113,-0.33029 1.47402,-0.51935 2.72746,-0.51935 h 1.97095 l -1.69325,1.53412 c -0.93129,0.84377 -1.69805,1.72634 -1.70391,1.96128 -0.0129,0.51204 -6.28225,5.6193 -6.83954,5.57165 -0.2141,-0.0183 -0.92364,-0.246 -1.57676,-0.50596 z m 77.81623,-4.3555 c -0.52425,-0.39767 -0.31674,-1.1944 0.52322,-2.00895 0.44493,-0.43148 0.81309,-1.01722 0.81815,-1.30164 0.005,-0.28442 0.47235,-1.1317 1.03843,-1.88283 0.56607,-0.75112 1.03147,-1.61282 1.03421,-1.91485 0.007,-0.86934 -1.11902,-0.63939 -1.92241,0.39224 -0.89084,1.14399 -1.79575,1.22439 -1.79575,0.15957 0,-0.442 -0.35964,-0.95222 -0.82737,-1.1738 -0.45506,-0.21558 -0.82106,-0.6051 -0.81333,-0.86563 0.007,-0.26051 0.37371,-1.0385 0.81333,-1.72888 0.4396,-0.69037 0.8056,-1.36368 0.81332,-1.49624 0.007,-0.13257 0.76458,-1.17818 1.68193,-2.32358 0.91735,-1.14542 1.59891,-2.23725 1.51458,-2.42633 -0.0844,-0.18905 -0.44697,0.0799 -0.80587,0.59767 -0.3589,0.51778 -1.46081,1.44944 -2.44872,2.07034 l -1.79615,1.12893 -0.95831,-0.32437 c -1.00492,-0.34014 -2.22705,-1.90714 -2.73168,-3.5025 -0.16377,-0.51779 -0.56353,-1.16522 -0.88835,-1.43876 l -0.59059,-0.49734 0.48067,-1.07168 c 0.26437,-0.58943 0.7308,-1.35022 1.0365,-1.69067 0.3057,-0.34043 0.55582,-0.865 0.55582,-1.16572 0,-0.30071 0.37233,-0.6979 0.82738,-0.88263 0.45505,-0.18473 0.82737,-0.6393 0.82737,-1.01015 0,-0.39699 0.83877,-1.28752 2.0398,-2.16568 1.12191,-0.82028 2.2454,-1.78281 2.49666,-2.13894 0.27184,-0.38528 0.86978,-0.64752 1.4765,-0.64752 1.01147,0 2.67439,0.9719 2.67439,1.56305 0,0.1693 0.47189,0.39767 1.04865,0.50747 0.57676,0.10982 1.32616,0.60674 1.66535,1.10429 0.3392,0.49757 0.88332,0.90465 1.20918,0.90465 0.32585,0 1.09024,0.64434 1.69866,1.43185 l 1.10619,1.43185 -0.45713,0.76107 c -0.51956,0.86498 -0.24007,1.70991 0.5656,1.70991 1.10019,0 3.0567,-1.11651 4.10446,-2.34226 l 1.07779,-1.26088 -0.25918,-0.89512 c -0.14255,-0.49231 -0.25161,-1.41145 -0.24235,-2.04253 0.0197,-1.34198 -1.10011,-3.86087 -1.87713,-4.22261 -0.29648,-0.13801 -0.54191,-0.63226 -0.5454,-1.09831 -0.01,-1.28053 -0.52474,-1.70024 -1.79106,-1.45916 l -1.09839,0.20913 v -0.51146 c 0,-0.2813 -0.51193,-0.68321 -1.13762,-0.89315 -1.52342,-0.51115 -2.16883,-1.18885 -1.90715,-2.0026 0.1188,-0.3695 0.0117,-0.76759 -0.23792,-0.88465 -0.24967,-0.11704 -0.33939,-0.35344 -0.19936,-0.5253 0.14003,-0.17187 0.1321,-0.8078 -0.0176,-1.41319 l -0.27221,-1.10074 -1.19552,-0.31613 c -0.80779,-0.21361 -1.34019,-0.64867 -1.64159,-1.34147 -0.24535,-0.56391 -0.33775,-1.23947 -0.20532,-1.50124 0.13242,-0.26176 -0.14437,-1.03642 -0.61508,-1.72145 l -0.85582,-1.2455 0.72973,-1.49519 c 0.40135,-0.82236 1.06446,-1.63119 1.47359,-1.79743 1.04781,-0.42574 5.21749,0.29975 6.43606,1.11982 0.53608,0.36076 1.13106,0.96284 1.32218,1.33794 0.19114,0.37512 0.77638,0.72815 1.3006,0.78452 0.98965,0.10642 1.12178,0.62345 0.52741,2.06377 -0.17834,0.43216 -0.11841,0.70606 0.15445,0.70606 0.66871,0 2.13278,-1.29973 2.13278,-1.89336 0,-0.28589 0.34042,-0.75351 0.75651,-1.03915 0.8249,-0.56628 2.13928,-0.70008 2.13928,-0.21776 0,0.16588 0.36205,0.55745 0.80456,0.87018 0.44251,0.31271 1.00444,1.24512 1.24872,2.07199 l 0.44416,1.50339 -0.83504,1.43196 c -0.45928,0.78759 -0.83503,1.48464 -0.83503,1.549 0,0.0644 0.28322,0.11701 0.62939,0.11701 0.34616,0 0.8581,-0.38301 1.13762,-0.85114 0.92368,-1.54687 2.0627,-2.22415 3.74049,-2.22415 h 1.55933 l 1.42638,-1.05124 c 0.92449,-0.68135 1.42792,-1.34837 1.43077,-1.89569 0.002,-0.46444 -0.18174,-0.93171 -0.40926,-1.03839 -0.22754,-0.10666 -0.41793,-0.50333 -0.42309,-0.88147 -0.006,-0.45826 -0.45462,-0.8545 -1.34447,-1.18818 l -1.33507,-0.50064 0.13108,-0.82178 0.13107,-0.82179 -1.0401,-0.19802 c -0.57205,-0.10891 -1.34498,-0.55101 -1.71764,-0.98243 l -0.67754,-0.7844 0.86262,-0.69652 c 0.47444,-0.38308 0.86261,-0.99681 0.86261,-1.36384 0,-0.36702 0.18086,-0.7521 0.40191,-0.85572 0.48844,-0.229 2.0802,-2.89955 2.0802,-3.49004 0,-0.62776 1.90377,-1.46138 2.82881,-1.23867 0.4405,0.10605 1.3956,1.07094 2.12243,2.1442 0.72686,1.07324 1.69166,2.29691 2.14401,2.71924 l 0.82247,0.76787 0.79848,-0.37828 c 0.43919,-0.20804 0.7976,-0.27115 0.79649,-0.14025 -0.001,0.1309 -0.64794,1.55383 -1.43742,3.16206 -1.4833,3.02159 -9.19169,14.42771 -11.38365,16.84442 -0.68318,0.75322 -1.24214,1.54091 -1.24214,1.75042 0,0.20951 -1.83699,3.22011 -4.08221,6.69025 -2.24519,3.47014 -5.20555,8.09195 -6.57855,10.27069 -1.37301,2.17875 -3.59851,5.28841 -4.94558,6.91037 -1.34708,1.62194 -3.33163,4.17695 -4.41012,5.67779 -2.23243,3.10663 -3.23542,4.14894 -3.67301,3.817 z m 16.65686,-31.36818 c 0,-0.26907 -0.18616,-0.40195 -0.41368,-0.29528 -0.22753,0.10666 -0.41369,0.32682 -0.41369,0.48923 0,0.1624 0.18616,0.29526 0.41369,0.29526 0.22752,0 0.41368,-0.22013 0.41368,-0.48921 z m 6.54163,-2.57037 c -0.0759,-0.30203 -0.55494,-0.59428 -1.06455,-0.64942 -1.01844,-0.11023 -1.20049,0.23766 -0.43014,0.82201 0.74109,0.56216 1.65284,0.45689 1.49469,-0.17259 z m -38.39526,13.41514 c -0.57305,-0.61048 -1.24246,-0.94141 -1.90429,-0.94141 -1.35413,0 -3.0599,-0.87479 -3.0599,-1.56924 0,-0.30561 0.27809,-0.96014 0.61797,-1.45449 0.68353,-0.99415 0.80162,-1.68335 0.28846,-1.68335 -0.18403,0 -0.66762,-0.18469 -1.07462,-0.41045 l -0.73998,-0.41045 0.52354,-1.32555 0.52354,-1.32553 -0.48313,-0.36649 c -0.84447,-0.64058 -0.5283,-1.3061 1.20994,-2.54677 1.18122,-0.84311 1.62876,-1.39009 1.48307,-1.81264 -0.12189,-0.35344 0.17519,-0.96068 0.71408,-1.45987 0.5075,-0.47008 1.15788,-1.29967 1.44528,-1.84355 0.28742,-0.54388 0.96745,-1.3059 1.51118,-1.69338 l 0.98859,-0.70451 2.25774,0.53869 2.25774,0.53868 1.06408,-0.52886 c 0.58523,-0.29088 1.06407,-0.65195 1.06407,-0.80238 0,-0.15043 0.69443,-0.4936 1.54318,-0.76261 l 1.54319,-0.48912 0.52523,0.54488 c 0.51323,0.53242 0.68903,1.13325 0.55835,1.90812 -0.0357,0.21168 0.19896,0.70593 0.52149,1.09831 0.32253,0.39238 0.6036,1.24992 0.62461,1.90564 0.021,0.65573 0.12642,1.30051 0.23425,1.43287 0.39268,0.48197 -0.84161,2.42093 -2.17212,3.41218 -0.75033,0.55902 -1.23798,1.17138 -1.08365,1.36079 0.15432,0.18941 -0.26739,0.79112 -0.93714,1.33713 -0.66974,0.54602 -1.80038,1.69882 -2.51254,2.56178 -0.71216,0.86295 -1.69093,1.99265 -2.17504,2.51044 -0.48409,0.51777 -1.42245,1.61218 -2.08523,2.43198 -0.66276,0.81982 -1.47125,1.49058 -1.79663,1.49058 -0.32539,0 -0.98926,-0.42365 -1.47531,-0.94142 z M 376.09384,333.0841 c -0.27665,-0.20987 -1.10506,-0.38637 -1.84089,-0.39226 l -1.33788,-0.0107 0.0357,-1.33366 c 0.0342,-1.27607 -0.31661,-1.69057 -0.86307,-1.01986 -0.14061,0.17258 -0.53847,0.31379 -0.88412,0.31379 h -0.62847 l 0.13576,-1.15947 0.13578,-1.15946 -1.36885,-0.70455 c -0.75285,-0.3875 -1.73704,-1.05963 -2.18706,-1.49361 l -0.81823,-0.78907 0.51004,-0.61953 c 0.28052,-0.34074 0.93894,-0.76777 1.46313,-0.94895 0.5242,-0.18116 0.95309,-0.52198 0.95309,-0.75734 0,-0.49964 4.88415,-3.97878 5.58559,-3.97878 0.92101,0 2.23619,1.43419 2.51111,2.73835 0.33995,1.61267 1.68623,2.42554 3.51309,2.12117 l 1.21439,-0.20231 v 0.52459 c 0,0.28852 0.37231,0.88363 0.82737,1.32246 0.45506,0.43884 0.82737,0.97984 0.82737,1.20223 0,0.22239 -0.61096,1.01532 -1.35768,1.76206 -0.74674,0.74674 -1.75872,1.85402 -2.24886,2.46065 -0.73319,0.90742 -2.98706,2.5058 -3.53343,2.5058 -0.0775,0 -0.36722,-0.17171 -0.64388,-0.38156 z m -0.62773,-1.39666 c -0.15167,-0.11506 -0.27579,-0.0209 -0.27579,0.2092 0,0.23012 0.12411,0.32426 0.27579,0.20921 0.15169,-0.11507 0.15169,-0.30335 0,-0.41841 z m 13.32678,-8.81266 c -0.0269,-0.12946 -0.0158,-0.36677 0.0249,-0.5274 0.0406,-0.16061 -0.2407,-0.73517 -0.62523,-1.27679 -0.69721,-0.98207 -1.07762,-1.19733 -3.99685,-2.26167 -1.08238,-0.39464 -1.73321,-0.91998 -2.17843,-1.75841 l -0.63491,-1.19564 -0.87453,0.0974 c -0.48099,0.0535 -1.05309,-0.11492 -1.27132,-0.37435 l -0.39681,-0.47169 1.70524,-2.28271 c 1.14287,-1.52989 1.7552,-2.76384 1.85677,-3.74164 l 0.15155,-1.45896 2.61347,-1.0549 2.61347,-1.0549 0.63425,0.63139 c 0.4216,0.41972 0.82299,0.54185 1.19716,0.3643 0.3096,-0.14691 0.92844,-0.19461 1.37519,-0.10599 l 0.8123,0.16114 -0.29518,0.82026 c -0.31252,0.86846 -0.28758,2.56916 0.0413,2.81866 0.35057,0.26593 2.35349,-1.34595 2.91602,-2.34672 0.32588,-0.57979 1.07118,-1.14015 1.83608,-1.38048 l 1.28755,-0.40455 1.16021,0.96357 c 0.63811,0.52998 1.27922,1.32331 1.42469,1.76296 0.14547,0.43966 0.073,1.44772 -0.16115,2.24015 l -0.42566,1.44076 1.39123,1.31481 c 1.75099,1.65481 2.03948,2.26917 1.28777,2.74241 -0.32776,0.20634 -0.59593,0.65697 -0.59593,1.00137 0,0.34443 -0.55847,1.10872 -1.24105,1.69842 -0.68259,0.58972 -1.24106,1.17946 -1.24106,1.31052 0,0.28774 -4.23821,1.30888 -5.43244,1.30888 -0.46703,0 -1.32247,0.28242 -1.90098,0.62761 -1.02737,0.61302 -2.96008,0.86096 -3.05765,0.39226 z m 29.8342,-9.67564 c -0.56882,-0.23942 -1.45306,-0.43739 -1.96501,-0.43994 -0.61363,-0.003 -0.93078,-0.19455 -0.93078,-0.56204 v -0.55742 l -1.79738,0.0256 c -1.1849,0.0169 -2.19068,0.26031 -2.95157,0.71432 -0.63481,0.37878 -1.49486,0.68868 -1.91123,0.68868 -0.99623,0 -1.61546,-0.9302 -1.60517,-2.41135 l 0.007,-1.19739 1.95668,-1.49397 c 1.07619,-0.82168 2.63281,-1.91606 3.4592,-2.43198 l 1.5025,-0.93802 h 2.0837 c 1.14604,0 2.70381,-0.23563 3.4617,-0.5236 0.75789,-0.28797 1.65723,-0.62109 1.99852,-0.74026 0.34128,-0.11917 0.62052,-0.4837 0.62052,-0.81007 v -0.5934 l -1.54931,-0.0973 c -0.91436,-0.0574 -1.92039,0.0999 -2.45473,0.38376 -0.88895,0.47231 -2.60557,0.39563 -3.39745,-0.15176 -0.20893,-0.14443 0.19461,-0.92108 0.93079,-1.79134 0.71482,-0.84498 1.29996,-1.87701 1.30031,-2.29338 3.4e-4,-0.41636 0.3634,-1.25128 0.80677,-1.85535 0.44339,-0.60407 1.19651,-1.66317 1.67363,-2.35354 0.47713,-0.69037 1.22897,-1.67885 1.67076,-2.19663 0.44181,-0.51778 0.91833,-1.11792 1.05893,-1.33366 0.16143,-0.24766 1.15659,-0.39226 2.69958,-0.39226 h 2.44393 l 0.77362,0.96497 0.77361,0.96498 -0.18295,1.58403 c -0.10071,0.87122 -0.45917,1.9038 -0.79675,2.29463 l -0.6138,0.71058 0.63019,0.47804 c 0.34661,0.26293 0.84451,0.53224 1.10643,0.59846 0.57406,0.14514 0.61066,3.35931 0.048,4.21289 -0.2127,0.32268 -0.8332,1.26943 -1.37888,2.10389 -0.54566,0.83445 -1.30114,1.64458 -1.67881,1.80028 -0.37766,0.1557 -0.81592,0.86342 -0.97389,1.5727 -0.51762,2.3241 -4.03676,6.62453 -5.34603,6.53291 -0.24184,-0.0169 -0.90509,-0.22665 -1.47391,-0.46608 z m 61.74661,-30.24779 c -1.74996,-0.3152 -5.5524,-2.05696 -7.70688,-3.53025 l -1.70879,-1.16854 1.41391,0.19844 1.41389,0.19842 -0.26515,-0.52419 c -0.39256,-0.77597 0.5425,-2.07429 1.6451,-2.28421 0.52981,-0.10087 0.9633,-0.25221 0.9633,-0.33631 0,-0.0842 -0.25827,-0.52773 -0.5739,-0.98585 -0.31564,-0.45811 -0.76912,-1.20805 -1.00772,-1.66654 -0.29892,-0.57441 -0.85744,-0.90419 -1.79622,-1.06061 -0.82516,-0.13747 -1.97087,-0.73686 -2.90533,-1.51991 -0.84858,-0.71111 -1.55051,-1.46945 -1.55984,-1.68518 -0.01,-0.22378 -0.55003,-0.39227 -1.25804,-0.39227 h -1.24104 v 1.39361 c 0,0.76647 -0.1897,1.48253 -0.42155,1.59122 -0.23185,0.1087 -0.88655,0.8937 -1.45486,1.74444 -0.56832,0.85076 -1.22231,1.54682 -1.45332,1.54682 -0.23099,0 -1.08534,-0.21087 -1.89854,-0.46862 -0.81322,-0.25775 -1.64544,-0.39039 -1.84942,-0.29476 -0.6836,0.32049 0.43013,1.33635 1.69636,1.54733 1.63637,0.27262 1.62345,0.8985 -0.0147,0.7161 -0.6926,-0.0771 -1.35009,-0.0287 -1.46107,0.1075 -0.11103,0.13624 0.26951,0.48197 0.84557,0.76829 1.08454,0.53904 1.35612,1.20804 0.62884,1.549 -0.40264,0.18876 -1.34415,-0.27453 -4.29409,-2.11305 -0.755,-0.47055 -1.69066,-1.48703 -2.07922,-2.25882 l -0.70649,-1.40326 0.43972,-0.62325 c 0.24183,-0.34278 0.4397,-0.91494 0.4397,-1.27148 0,-0.75032 0.83432,-0.81836 2.68733,-0.21911 0.73539,0.23781 1.2401,0.63583 1.24106,0.9787 10e-4,0.31782 0.24641,0.64016 0.54561,0.71628 l 0.544,0.13843 -0.28485,-1.20972 c -0.15667,-0.66535 -0.61864,-1.49215 -1.0266,-1.83733 -0.40796,-0.34518 -1.25981,-1.47488 -1.893,-2.51042 -0.63318,-1.03556 -1.22271,-1.98875 -1.31004,-2.11819 -0.0874,-0.12945 0.29111,-0.23535 0.84096,-0.23535 0.54986,0 1.13177,-0.10017 1.29315,-0.22257 0.16138,-0.12242 1.01944,-0.18281 1.90681,-0.13421 1.15522,0.0633 1.97018,-0.11175 2.86984,-0.61629 l 1.25645,-0.70465 0.76484,0.52506 c 0.98212,0.67421 3.21552,0.69225 3.5512,0.0286 0.13812,-0.27301 0.25112,-0.88804 0.25112,-1.36673 v -0.87035 l 1.31205,-0.28544 c 0.72163,-0.157 1.37191,-0.42455 1.44505,-0.59455 0.0732,-0.17001 -0.37766,-0.52977 -1.0018,-0.79944 -0.80402,-0.3474 -1.2855,-0.92038 -1.65189,-1.96578 -0.2844,-0.8115 -0.5171,-2.04529 -0.5171,-2.74175 0,-1.27143 0.95626,-3.11797 1.6147,-3.11797 0.19383,0 0.5879,0.21524 0.8757,0.4783 0.2878,0.26305 0.62879,0.39826 0.75775,0.30043 0.41389,-0.31395 0.007,-2.80216 -0.53631,-3.28916 -0.28944,-0.25889 -0.73197,-0.93588 -0.98338,-1.50444 -0.51694,-1.16903 -2.02655,-2.88882 -2.53576,-2.88882 -0.18548,0 -0.44063,0.29987 -0.56698,0.66635 -0.13991,0.40585 0.0995,1.00414 0.61242,1.53038 0.82103,0.84238 0.92546,1.97258 0.18642,2.01732 -0.46267,0.028 -0.85882,-0.55842 -1.51445,-2.24188 -0.28334,-0.72752 -0.9529,-1.63472 -1.48791,-2.01598 -1.12753,-0.80353 -1.22108,-1.29201 -0.35219,-1.83901 0.92875,-0.5847 0.74994,-1.55839 -0.41369,-2.2527 -0.5688,-0.3394 -1.03421,-0.81867 -1.03421,-1.06502 0,-0.2865 -0.43846,-0.44794 -1.21664,-0.44794 -0.66914,0 -1.31292,-0.11819 -1.43062,-0.26265 -0.35771,-0.43904 0.98614,-1.62017 1.84335,-1.62017 0.44215,0 0.80391,-0.1325 0.80391,-0.29444 0,-0.42619 -2.1741,-0.24901 -2.84257,0.23167 -0.78061,0.56129 -1.87445,0.3421 -2.05368,-0.41154 -0.18472,-0.77675 -2.09591,-2.34993 -2.85482,-2.34993 -0.31004,0 -1.09418,-0.20811 -1.74257,-0.46245 l -1.17891,-0.46244 -0.50594,0.46244 c -0.57082,0.52174 -1.64568,0.62298 -1.64568,0.15501 0,-0.41509 3.21579,-1.69373 4.75734,-1.89156 l 1.24106,-0.15928 -0.0783,-1.33129 c -0.0839,-1.42443 0.39179,-1.72525 1.11252,-0.7037 0.24354,0.3452 0.71549,0.62761 1.04877,0.62761 0.40487,0 0.61084,-0.33846 0.62063,-1.01986 0.007,-0.56093 0.26721,-1.36581 0.5759,-1.78863 l 0.56124,-0.76877 -0.62348,-0.7218 c -0.72313,-0.83717 -0.38007,-0.90478 1.27289,-0.25083 0.64938,0.2569 1.3263,0.39884 1.50428,0.3154 0.17797,-0.0835 0.57167,-0.78905 0.87488,-1.56801 0.32137,-0.82565 0.85816,-1.49019 1.28711,-1.59348 0.40471,-0.0975 0.8568,-0.54274 1.00465,-0.98958 l 0.26881,-0.81241 -0.76059,-0.42188 c -0.41833,-0.23205 -1.07593,-0.42188 -1.46133,-0.42188 -0.87909,0 -2.21075,-1.4505 -1.59616,-1.73862 0.28299,-0.13267 0.20692,-0.4624 -0.22098,-0.95778 l -0.65253,-0.75545 h 0.59831 c 0.32909,0 1.17247,0.36647 1.87422,0.81439 l 1.2759,0.81438 1.29967,-0.34368 c 0.71482,-0.18902 1.89627,-0.34368 2.62544,-0.34368 2.11197,0 4.24643,-1.8498 4.9349,-4.27677 0.38755,-1.36621 -0.82239,-9.22925 -1.82855,-11.88316 -0.45783,-1.20759 -0.82455,-2.33729 -0.81492,-2.51044 0.01,-0.17314 0.65948,-0.62516 1.44411,-1.00449 l 1.4266,-0.68972 2.47139,0.009 c 1.35925,0.005 2.65471,-0.0769 2.8788,-0.18204 0.62321,-0.29217 1.21495,0.79865 1.77346,3.2693 0.35605,1.575 0.37595,2.3073 0.0669,2.45958 -0.82355,0.40577 -1.3151,1.47638 -1.08928,2.37246 l 0.22521,0.89369 1.30626,-0.16081 1.30625,-0.1608 0.41557,1.3587 c 0.45163,1.47661 0.063,2.79176 -0.7625,2.58054 -0.28469,-0.0728 -0.51761,-0.42494 -0.51761,-0.78243 0,-0.3575 -0.12411,-0.74517 -0.2759,-0.86148 -0.15174,-0.1163 -1.14593,0.0805 -2.20933,0.43729 l -1.93345,0.64877 0.29665,1.33187 c 0.16315,0.73253 0.59562,1.67803 0.96106,2.10109 0.36542,0.42305 0.60779,1.0969 0.5386,1.49741 -0.0834,0.48287 0.085,0.72824 0.49992,0.72824 0.77057,0 1.23106,0.51221 0.86473,0.96185 -0.1793,0.22004 -0.52971,0.15755 -1.0257,-0.18294 l -0.75338,-0.51718 -0.46115,0.65364 c -0.25365,0.35951 -0.85882,0.65365 -1.34482,0.65365 -0.48601,0 -1.21527,0.22764 -1.62057,0.50587 -0.52388,0.35964 -0.66719,0.77032 -0.49571,1.42063 0.16634,0.63092 0.0163,1.10324 -0.48349,1.52218 -0.77292,0.64787 -0.59309,1.57219 0.30588,1.57219 0.63899,0 3.20665,1.98854 3.20665,2.4834 0,0.45923 -0.44504,0.42998 -2.27303,-0.14939 -1.87397,-0.59395 -2.71164,-0.42147 -2.39624,0.49342 0.14194,0.41179 -0.1006,1.00908 -0.63046,1.55275 -0.47362,0.48595 -0.74703,0.97011 -0.60754,1.07592 0.13948,0.1058 0.94451,0.19237 1.78894,0.19237 h 1.53532 l 0.61548,0.70316 0.6155,0.70317 1.14356,-0.46424 c 0.62894,-0.25535 1.33536,-0.78358 1.56978,-1.17388 0.7105,-1.18288 1.73587,-0.83536 3.37056,1.14237 l 1.53076,1.85198 1.37926,0.19627 c 0.75859,0.10796 1.48555,0.40637 1.61545,0.66317 0.1299,0.25679 0.70634,0.60248 1.28099,0.76821 0.57463,0.16573 1.0448,0.48947 1.0448,0.71941 0,0.22994 -0.78148,0.67963 -1.73662,0.99929 l -1.73665,0.58122 -0.43519,-0.55548 c -0.23937,-0.30551 -0.99368,-1.14004 -1.67627,-1.85449 l -1.24105,-1.29902 -0.13346,1.05897 c -0.0734,0.58244 0.14932,2.06517 0.49498,3.29495 0.42173,1.50045 0.56004,3.16502 0.42048,5.06022 -0.11439,1.55333 -0.18978,3.41241 -0.16749,4.13131 0.0223,0.71888 -0.1534,1.39796 -0.39041,1.50908 -0.52327,0.24532 -0.57536,1.94307 -0.0669,2.18143 0.35398,0.16595 1.3412,2.28862 1.86787,4.01616 0.14333,0.47016 0.72365,1.37244 1.28961,2.00506 1.07365,1.20012 1.37013,2.80694 0.5559,3.01282 -0.81485,0.20603 -0.79468,1.9089 0.0307,2.59431 0.41945,0.34833 1.35564,1.43953 2.08041,2.42491 0.92599,1.25896 1.20835,1.9399 0.94971,2.29044 l -0.36802,0.49887 -0.50104,-0.83416 c -0.35732,-0.5949 -0.72733,-0.78927 -1.28996,-0.67766 -0.45106,0.0895 -0.8834,-0.0302 -1.0095,-0.27954 -0.25279,-0.49966 -1.48761,-0.59759 -1.48761,-0.11796 0,0.17493 0.17257,0.56326 0.38349,0.86296 0.21091,0.29969 0.48431,0.79203 0.60753,1.09407 0.13613,0.33362 0.63509,0.54914 1.27125,0.54914 1.34679,0 2.60329,0.96424 3.35082,2.57141 0.91514,1.96756 0.75414,2.6827 -0.85585,3.80155 -0.79641,0.55345 -1.61655,1.45204 -1.82254,1.99685 l -0.37452,0.99057 0.91946,0.65524 c 0.50569,0.36036 1.3496,1.44246 1.87533,2.40465 l 0.95589,1.74942 -0.48165,0.68269 c -0.26492,0.37547 -0.98676,0.92956 -1.60412,1.23132 -0.61734,0.30175 -1.755,0.90151 -2.52811,1.3328 -1.43451,0.80026 -2.52243,0.90653 -4.89866,0.47855 z m 6.66435,-4.15746 c 0.31617,-0.38084 0.31914,-0.63882 0.0106,-0.87325 -0.54182,-0.411 -1.67116,-0.11372 -1.99424,0.52495 -0.55567,1.09842 1.11756,1.39214 1.98415,0.3483 z m -2.94557,-4.13267 c 0.39817,-0.22928 0.72394,-0.7813 0.72394,-1.22671 0,-0.44542 0.19765,-0.90252 0.43921,-1.01575 0.49043,-0.22993 1.23059,-1.53905 1.4126,-2.49848 0.0654,-0.34518 0.25401,-0.87474 0.41895,-1.17677 0.44942,-0.82302 -0.26003,-0.66148 -1.25597,0.28597 -0.50962,0.48484 -1.08009,0.74032 -1.36001,0.6091 -0.26518,-0.12432 -0.4878,-0.88846 -0.49472,-1.6981 l -0.0129,-1.47205 -0.44248,0.5774 c -0.25708,0.33545 -0.32935,1.14972 -0.17249,1.94322 l 0.27,1.36583 -0.98825,0.49118 c -0.65928,0.32768 -1.42679,0.42467 -2.30565,0.29133 -0.72455,-0.10991 -1.42041,-0.32632 -1.54635,-0.48089 -0.12591,-0.15456 -0.27645,-0.91916 -0.3345,-1.6991 -0.0599,-0.80455 -0.40027,-1.64163 -0.78679,-1.93484 -0.37468,-0.28423 -0.78473,-0.43826 -0.91123,-0.34231 -0.12655,0.096 4.6e-4,0.82808 0.28214,1.62696 l 0.51214,1.45251 -0.49883,0.37839 -0.49884,0.3784 -0.49643,-0.37656 c -0.27303,-0.20712 -0.73843,-0.37657 -1.03421,-0.37657 -1.01147,0 -0.53818,0.75881 1.26427,2.02702 0.99113,0.69737 1.87537,1.43961 1.965,1.64944 0.0897,0.20984 0.8145,0.42166 1.61083,0.47071 l 1.44789,0.0892 -0.12151,-0.54916 c -0.0669,-0.30203 0.0727,-0.54915 0.31025,-0.54915 0.2375,0 0.43183,0.2211 0.43183,0.49134 0,0.60528 0.75004,1.70888 1.15219,1.69532 0.16263,-0.006 0.62147,-0.19758 1.01965,-0.42686 z m -2.5832,-9.8353 0.8897,-0.85802 -0.24346,-0.92348 c -0.13393,-0.50792 -0.34665,-1.00174 -0.47273,-1.09737 -0.12604,-0.0956 -0.79079,0.0706 -1.47711,0.36936 -1.68036,0.73156 -3.72775,0.68949 -4.92971,-0.10127 l -0.9797,-0.64455 -1.5657,1.3254 c -0.86113,0.72898 -1.5657,1.50493 -1.5657,1.72434 0,0.60571 0.79248,0.8486 1.43957,0.44122 0.38051,-0.23955 0.83062,-0.2631 1.32636,-0.0694 1.02335,0.39982 1.78459,0.13931 1.78459,-0.61073 v -0.62261 l 0.93079,0.21029 c 0.51194,0.11566 1.39195,0.5488 1.95559,0.96257 0.56365,0.41374 1.24823,0.75227 1.52129,0.75227 0.27306,0 0.89685,-0.38611 1.38622,-0.858 z m -6.62126,-1.65243 c 0,-0.23013 0.1241,-0.32427 0.2758,-0.20921 0.15167,0.11507 0.15167,0.30335 0,0.4184 -0.15169,0.11506 -0.2758,0.0209 -0.2758,-0.20919 z m 7.86,-1.72593 c 0,-0.0863 -0.0931,-0.15689 -0.20685,-0.15689 -0.11375,0 -0.20684,0.0706 -0.20684,0.15689 0,0.0863 0.0931,0.1569 0.20684,0.1569 0.11374,0 0.20685,-0.0706 0.20685,-0.1569 z m -11.23409,-3.11892 c 0.0782,-0.30607 -0.0628,-0.71196 -0.31321,-0.90196 l -0.45544,-0.34548 -0.68545,0.51996 -0.68545,0.51995 0.54365,0.49692 c 0.65899,0.60231 1.40246,0.4675 1.5959,-0.28939 z m -1.17643,-2.86189 c 0,-0.47166 0.23843,-0.76599 0.62053,-0.76599 0.72927,0 0.82745,-0.97273 0.15007,-1.48657 l -0.47049,-0.35687 -0.97741,1.09256 c -1.09271,1.22143 -1.20119,1.71085 -0.49751,2.24462 0.66309,0.503 1.17481,0.18601 1.17481,-0.72775 z m 14.06524,-0.95992 c 0,-0.25889 -0.18615,-0.38343 -0.41367,-0.27678 -0.22754,0.10668 -0.4137,0.40578 -0.4137,0.66466 0,0.25889 0.18616,0.38343 0.4137,0.27676 0.22752,-0.10667 0.41367,-0.40576 0.41367,-0.66464 z m -5.19899,-2.05446 0.65316,-0.9932 -0.62285,-0.52209 c -0.3426,-0.28715 -0.62289,-0.65428 -0.62289,-0.81583 0,-0.16157 0.35646,-0.79824 0.79213,-1.41485 l 0.79212,-1.1211 -0.55026,-2.16919 c -0.30264,-1.19307 -0.7268,-2.52224 -0.94257,-2.95372 -0.21579,-0.43148 -0.52753,-1.49056 -0.69277,-2.35352 -0.33346,-1.74151 -1.78118,-4.55017 -2.34536,-4.55017 -0.57645,0 -0.42226,-0.92506 0.31116,-1.86688 l 0.67389,-0.86539 -0.7038,-1.60737 -0.70381,-1.60738 -1.10772,0.51957 c -0.60925,0.28576 -1.34043,0.73295 -1.62484,0.99376 -0.61856,0.56723 -0.68569,2.12098 -0.10335,2.39396 0.22753,0.10667 0.41369,0.66474 0.41369,1.24017 0,0.67936 0.23743,1.11533 0.67711,1.24331 l 0.67712,0.1971 -0.24626,1.57725 -0.24627,1.57725 0.61392,0.17871 0.61391,0.17869 -0.45842,0.419 c -0.54007,0.49364 -0.13675,1.70364 0.5686,1.70589 0.26908,6.6e-4 -0.0528,0.33052 -0.71513,0.73258 -1.27698,0.7751 -1.18552,1.4625 0.19457,1.4625 1.14926,0 0.99254,0.88934 -0.23126,1.31231 -0.56883,0.1966 -1.02903,0.44069 -1.02273,0.54244 0.006,0.10174 0.55344,0.58823 1.21584,1.0811 1.48568,1.10548 1.92479,2.07846 1.89692,4.2032 l -0.0216,1.64747 h 0.72394 c 0.39818,0 0.72396,0.14121 0.72396,0.3138 0,0.65404 0.79232,0.27495 1.41993,-0.67937 z m -13.00941,-8.65631 c -0.01,-0.7969 -0.65527,-1.44842 -1.18846,-1.19844 -0.50487,0.23669 -0.62102,1.20701 -0.18415,1.5384 0.53891,0.40879 1.37885,0.20077 1.37261,-0.33996 z m -1.23472,-3.21649 c 0,-0.17258 -0.0821,-0.3138 -0.18242,-0.3138 -0.10028,0 -0.29747,0.14122 -0.4381,0.3138 -0.14062,0.1726 -0.0584,0.31381 0.18242,0.31381 0.24096,0 0.4381,-0.14121 0.4381,-0.31381 z m -4.55052,-6.11919 c 0,-0.0863 -0.0931,-0.15689 -0.20684,-0.15689 -0.11374,0 -0.20684,0.0706 -0.20684,0.15689 0,0.0863 0.0931,0.1569 0.20684,0.1569 0.11375,0 0.20684,-0.0705 0.20684,-0.1569 z m 14.47892,-24.79054 c 0,-0.0863 -0.0931,-0.15691 -0.20684,-0.15691 -0.11375,0 -0.20683,0.0706 -0.20683,0.15691 0,0.0863 0.0931,0.1569 0.20683,0.1569 0.11375,0 0.20684,-0.0706 0.20684,-0.1569 z m 0.82737,-1.88283 c 0,-0.0863 -0.0931,-0.1569 -0.20684,-0.1569 -0.11375,0 -0.20684,0.0706 -0.20684,0.1569 0,0.0863 0.0931,0.1569 0.20684,0.1569 0.11375,0 0.20684,-0.0706 0.20684,-0.1569 z m 2.06841,-1.09831 c 0,-0.17259 -0.18616,-0.31381 -0.41368,-0.31381 -0.22752,0 -0.41369,0.14122 -0.41369,0.31381 0,0.17259 0.18617,0.3138 0.41369,0.3138 0.22752,0 0.41368,-0.14121 0.41368,-0.3138 z m -3.32262,-0.39226 c -0.007,-0.21573 -0.28646,-0.66637 -0.62052,-1.00138 l -0.60736,-0.60914 v 0.79218 c 0,0.43571 0.12409,0.88634 0.27578,1.00139 0.44748,0.33944 0.96628,0.23969 0.9521,-0.18305 z m -2.05525,67.37097 c 0,-0.26907 0.18615,-0.40195 0.41369,-0.29529 0.22751,0.10667 0.41368,0.32682 0.41368,0.48923 0,0.16241 -0.18617,0.29528 -0.41368,0.29528 -0.22754,0 -0.41369,-0.22014 -0.41369,-0.48922 z m -7.44631,-18.04376 c 0,-0.18277 0.18616,-0.24505 0.41369,-0.13838 0.22751,0.10667 0.41368,0.25621 0.41368,0.33233 0,0.076 -0.18617,0.13838 -0.41368,0.13838 -0.22753,0 -0.41369,-0.14954 -0.41369,-0.33233 z m -0.41368,-0.76599 c 0,-0.0863 0.0931,-0.1569 0.20684,-0.1569 0.11374,0 0.20684,0.0706 0.20684,0.1569 0,0.0863 -0.0931,0.1569 -0.20684,0.1569 -0.11375,0 -0.20684,-0.0706 -0.20684,-0.1569 z m -1.49416,-1.34172 c -0.54045,-0.26708 -0.99667,-2.26703 -0.51716,-2.26703 0.18011,0 0.53187,0.28971 0.7817,0.6438 0.56145,0.79581 0.3751,1.93935 -0.26454,1.62323 z m 22.59201,-1.79633 c 0,-0.0863 0.0931,-0.1569 0.20684,-0.1569 0.11374,0 0.20685,0.0706 0.20685,0.1569 0,0.0863 -0.0931,0.15692 -0.20685,0.15692 -0.11374,0 -0.20684,-0.0706 -0.20684,-0.15692 z m -17.93424,-0.93402 c -0.14803,-0.29261 -0.0952,-0.76701 0.11736,-1.05421 l 0.38653,-0.5222 0.26928,0.5301 c 0.1481,0.29156 0.0952,0.76595 -0.11737,1.05422 l -0.38668,0.5241 z m 18.49046,-1.39547 c 0.13703,-0.93604 0.46211,-1.85393 0.72236,-2.03973 l 0.4732,-0.33783 -0.19697,1.66595 c -0.10832,0.91626 -0.43341,1.83414 -0.72238,2.03972 l -0.52539,0.37378 z m 1.12285,-3.67766 c -0.0133,-0.36987 0.26262,-0.75601 0.61332,-0.8581 l 0.63765,-0.18561 -0.83214,-0.86783 c -0.45768,-0.4773 -0.94857,-1.43948 -1.09087,-2.13818 l -0.25871,-1.27035 0.66005,-0.41556 0.66005,-0.41553 0.56714,0.35704 0.56712,0.35704 1.81155,-0.78554 c 0.99636,-0.43205 2.11741,-0.78724 2.49124,-0.78932 0.88511,-0.005 1.29007,0.82556 0.76527,1.5694 l -0.41367,0.58631 0.8808,0.46799 0.88079,0.46797 -1.60327,0.0998 -1.60329,0.0998 -0.12963,1.01986 -0.12964,1.01986 h -1.008 c -0.99813,0 -1.99606,0.59344 -2.94867,1.75347 l -0.49276,0.60007 z m 5.1297,-9.86083 c -0.44524,-0.54648 0.0618,-0.66221 0.62924,-0.14362 0.32629,0.29824 0.35767,0.4783 0.0833,0.4783 -0.24196,0 -0.56263,-0.15061 -0.7126,-0.33468 z m -61.82866,-0.46836 c 0,-0.26907 0.18615,-0.40195 0.41368,-0.29528 0.22752,0.10666 0.41369,0.32682 0.41369,0.48923 0,0.1624 -0.18617,0.29528 -0.41369,0.29528 -0.22753,0 -0.41368,-0.22015 -0.41368,-0.48923 z m 6.61893,0.0186 c -0.29738,-0.27181 -1.19972,-0.47071 -2.13554,-0.47071 -0.89131,0 -2.35914,-0.28581 -3.26183,-0.63514 l -1.64128,-0.63517 0.6386,-0.7393 0.6386,-0.73933 -1.06228,-0.95764 -1.06227,-0.95764 0.94381,-0.67095 0.94379,-0.67095 -1.30269,-0.84104 c -0.7165,-0.46257 -2.01959,-1.29423 -2.8958,-1.84813 l -1.59307,-1.00709 0.62051,-0.32177 c 0.3413,-0.17698 1.67881,-0.32394 2.97228,-0.32658 1.29346,-0.003 2.86349,-0.15239 3.48895,-0.33278 0.81528,-0.23512 1.467,-0.22435 2.30219,0.0381 l 1.16498,0.36605 v 0.84238 c 0,0.4633 -0.46538,1.32088 -1.03421,1.90571 -0.56881,0.58485 -1.0342,1.24941 -1.0342,1.47681 v 0.41344 l 1.59514,-0.19349 1.59516,-0.19349 0.25148,0.72949 c 0.13832,0.40121 0.15563,1.01916 0.0385,1.37322 -0.26136,0.78996 0.64819,1.50585 3.13866,2.47043 1.02388,0.39654 1.83318,0.85082 1.79843,1.0095 -0.0512,0.23385 -3.33128,1.26456 -4.33329,1.36166 -0.14279,0.0138 -0.49134,-0.18666 -0.77459,-0.44555 z m 9.6993,0.12957 c -0.36102,-0.44311 0.43631,-1.04792 1.02043,-0.77407 0.65611,0.3076 0.5501,1.1152 -0.14638,1.1152 -0.32787,0 -0.72119,-0.15351 -0.87405,-0.34113 z m 50.69848,-1.69859 c 0,-0.0863 0.0931,-0.1569 0.20684,-0.1569 0.11375,0 0.20684,0.0706 0.20684,0.1569 0,0.0863 -0.0931,0.1569 -0.20684,0.1569 -0.11374,0 -0.20684,-0.0706 -0.20684,-0.1569 z m -5.88459,-1.25668 c -0.61998,-0.26456 -1.33277,-0.77236 -1.58402,-1.12846 l -0.45677,-0.64744 0.75011,-0.41607 0.75012,-0.41607 -0.53648,-1.1254 c -0.29506,-0.61896 -0.42076,-1.26743 -0.27933,-1.44103 0.14145,-0.1736 1.17698,-0.31564 2.30118,-0.31564 h 2.04399 v -0.45219 c 0,-0.2487 -0.15853,-0.52652 -0.35232,-0.61736 -0.19377,-0.0909 -0.68261,-0.82122 -1.0863,-1.62305 l -0.73398,-1.45788 0.5692,-0.27349 c 0.31306,-0.15042 2.84963,-0.27565 5.63682,-0.27829 l 5.06763,-0.005 v -0.50726 -0.50726 l -2.73689,0.22233 c -1.88261,0.15292 -2.65268,0.11899 -2.46715,-0.10873 0.40044,-0.49146 3.06057,-0.97712 5.41088,-0.98782 1.13762,-0.005 2.87017,-0.1497 3.85011,-0.32115 1.17353,-0.20532 2.02079,-0.20596 2.48212,-0.002 l 0.70038,0.30986 -0.64923,0.01 c -0.35708,0.005 -1.64726,0.57439 -2.86708,1.26476 -1.2198,0.69037 -2.64037,1.25522 -3.15678,1.25522 -0.51641,0 -1.0878,0.19166 -1.26975,0.42593 -0.18195,0.23427 -1.71907,1.06347 -3.4158,1.84267 -1.69675,0.7792 -3.15546,1.57711 -3.24159,1.77314 -0.0862,0.19603 0.40535,0.44168 1.09219,0.54588 l 1.24882,0.18946 -0.40715,0.82794 c -0.22393,0.45539 -0.81643,1.07686 -1.31669,1.38104 l -0.90954,0.55309 0.81045,0.4709 0.81045,0.4709 -0.85317,0.64718 c -1.11365,0.84477 -3.7377,1.06734 -5.20443,0.44143 z m -45.82583,-0.43751 c 0,-0.22418 -0.29507,-0.87927 -0.65571,-1.45577 -0.36065,-0.5765 -0.59334,-1.2922 -0.51711,-1.59044 0.20037,-0.78388 1.17282,-0.9297 1.17282,-0.17587 0,0.34518 0.22823,0.68532 0.50718,0.75587 0.58543,0.14801 0.50355,2.10711 -0.1074,2.57057 -0.25722,0.19511 -0.39976,0.1579 -0.39976,-0.10436 z m 7.85998,-3.32668 c 0,-0.0863 0.0931,-0.1569 0.20685,-0.1569 0.11375,0 0.20684,0.0706 0.20684,0.1569 0,0.0863 -0.0931,0.1569 -0.20684,0.1569 -0.11375,0 -0.20685,-0.0706 -0.20685,-0.1569 z m 2.89579,0 c 0,-0.0863 0.0931,-0.1569 0.20684,-0.1569 0.11374,0 0.20684,0.0706 0.20684,0.1569 0,0.0863 -0.0931,0.1569 -0.20684,0.1569 -0.11375,0 -0.20684,-0.0706 -0.20684,-0.1569 z m -8.27368,-1.88282 c 0,-0.0863 0.0931,-0.1569 0.20686,-0.1569 0.11374,0 0.20684,0.0706 0.20684,0.1569 0,0.0863 -0.0931,0.1569 -0.20684,0.1569 -0.11375,0 -0.20686,-0.0706 -0.20686,-0.1569 z m 3.67513,-0.35772 c -0.25683,-0.23473 -0.80012,-0.42679 -1.20731,-0.42679 h -0.74035 l -0.27995,-1.25696 c -0.15398,-0.69131 -0.5892,-1.43268 -0.96716,-1.64747 -0.37794,-0.21478 -0.91837,-0.61543 -1.20094,-0.89031 -0.63526,-0.61801 -2.83228,-6.25989 -3.11049,-7.98762 -0.2955,-1.83517 -2.67802,-7.54963 -3.96283,-9.50479 -0.60515,-0.92091 -1.47343,-1.90939 -1.9295,-2.19662 -0.45607,-0.28725 -1.06417,-0.92238 -1.35132,-1.41141 l -0.52213,-0.88914 1.38495,-1.05057 1.38494,-1.05055 2.65533,-0.24173 c 1.46044,-0.13296 2.81671,-0.20778 3.01396,-0.16625 0.19723,0.0415 0.9983,-0.0847 1.78011,-0.28039 0.78184,-0.19573 1.87019,-0.27045 2.41857,-0.16604 l 0.99705,0.18983 -0.0361,1.36582 c -0.0199,0.7512 0.20323,2.58627 0.49579,4.07791 0.29254,1.49165 0.41323,2.80212 0.26815,2.91216 -0.35485,0.26918 -1.52479,-0.49236 -1.52479,-0.99252 0,-0.6845 -1.13366,-0.76703 -2.07044,-0.15072 -0.6457,0.4248 -0.81645,0.78083 -0.61051,1.27301 0.16118,0.38522 0.0497,1.01807 -0.25561,1.4508 l -0.54153,0.76753 0.60141,0.28858 c 0.33078,0.15872 1.34605,0.29269 2.25615,0.29769 0.9101,0.005 2.0736,0.0942 2.58551,0.1983 l 0.93079,0.18923 v 1.24106 1.24108 l -0.93079,-0.0572 c -1.89458,-0.11642 -2.40783,0.0313 -2.88828,0.83116 l -0.49186,0.81889 0.69042,0.38295 c 0.44284,0.24563 0.76632,1.00527 0.90212,2.11846 l 0.21168,1.73552 -0.90999,0.30801 -0.90998,0.30802 0.92228,0.37443 c 0.50727,0.20592 0.92231,0.63458 0.92231,0.95255 0,0.31798 0.27924,0.75395 0.62053,0.96881 0.34128,0.21485 0.62052,0.5802 0.62052,0.81189 0,0.23168 0.37232,0.57238 0.82737,0.75713 0.45505,0.18473 0.82737,0.51879 0.82737,0.74236 0,0.22358 0.45642,1.09037 1.01427,1.92622 0.55784,0.83585 0.9329,1.61959 0.83347,1.74164 -0.36494,0.44793 -2.26484,0.51493 -2.72314,0.096 z m -6.98459,-22.66848 c 0,-0.15145 -0.27923,-0.45117 -0.62052,-0.66604 l -0.62054,-0.39065 v 0.45684 c 0,0.25126 0.1241,0.55097 0.2758,0.66603 0.39288,0.29801 0.96526,0.25876 0.96526,-0.0662 z m 3.30946,-1.13674 c 0,-0.0863 -0.0931,-0.1569 -0.20684,-0.1569 -0.11374,0 -0.20683,0.0706 -0.20683,0.1569 0,0.0863 0.0931,0.1569 0.20683,0.1569 0.11375,0 0.20684,-0.0706 0.20684,-0.1569 z m 34.85283,23.50888 c -1.45754,-0.87112 -1.66878,-1.41847 -0.76665,-1.98639 0.3178,-0.20008 0.48225,-0.64101 0.36543,-0.97985 -0.11737,-0.34059 -0.006,-0.61606 0.24955,-0.61606 0.25407,0 0.46193,0.16741 0.46193,0.37204 0,0.20461 0.36602,0.66756 0.81336,1.02877 0.87511,0.70661 1.31429,2.69721 0.63454,2.87615 -0.22752,0.0598 -1.01869,-0.25271 -1.75816,-0.69466 z m -59.53594,-0.96726 c 0.1517,-0.11507 0.39991,-0.11507 0.55159,0 0.15168,0.11506 0.0275,0.20919 -0.27579,0.20919 -0.30337,0 -0.42749,-0.0941 -0.2758,-0.20919 z m -2.69702,-1.71087 -1.11125,-0.90417 1.52494,0.004 c 0.8387,0.002 1.93735,0.0881 2.44144,0.19068 l 0.91651,0.18639 -0.70967,0.74088 c -0.39031,0.40749 -0.98891,0.72856 -1.33021,0.71351 -0.34129,-0.015 -1.12059,-0.43427 -1.73176,-0.93156 z m 6.07544,-0.27657 c -0.33121,-0.40652 2.27336,-0.40652 3.10262,0 l 0.62054,0.3042 -1.73374,0.005 c -0.95356,0.003 -1.84879,-0.13641 -1.98942,-0.309 z m 57.29515,-0.1569 c 0,-0.0863 0.0931,-0.1569 0.20684,-0.1569 0.11375,0 0.20684,0.0706 0.20684,0.1569 0,0.0863 -0.0931,0.1569 -0.20684,0.1569 -0.11374,0 -0.20684,-0.0706 -0.20684,-0.1569 z m -8.28159,-2.6091 -0.92012,-0.56518 0.27799,-0.9233 c 0.27125,-0.90086 2.12693,-2.26113 2.5976,-1.90409 0.26132,0.19823 1.4119,3.41169 1.25413,3.50272 -0.0544,0.0314 -0.59189,0.14666 -1.19426,0.25609 -0.74665,0.13562 -1.38806,0.0191 -2.01534,-0.36624 z m 7.59908,-3.25385 c -0.19344,-0.22723 -0.75676,-1.33101 -1.25186,-2.45287 l -0.90017,-2.03972 -1.49656,0.0707 c -0.88805,0.0419 -1.39522,-0.0538 -1.24727,-0.23537 0.13713,-0.16829 0.48769,-0.306 0.77903,-0.306 0.29134,0 0.74176,-0.35303 1.00093,-0.78451 0.25916,-0.43148 0.80688,-0.78452 1.21712,-0.78452 0.82504,0 1.40979,1.24914 2.18202,4.6612 0.45548,2.01255 0.36213,2.62926 -0.28324,1.87113 z m -24.79852,-0.93232 c -0.18287,-0.22447 -0.11349,-0.27711 0.18244,-0.13839 0.47686,0.22357 0.64023,0.50068 0.29516,0.50068 -0.10028,0 -0.31525,-0.16304 -0.4776,-0.36229 z m -3.20101,-2.98496 c -0.15169,-0.11506 -0.27579,-0.35513 -0.27579,-0.53347 0,-0.19663 0.19268,-0.17811 0.48952,0.0471 0.26925,0.20423 0.39335,0.44428 0.27579,0.53346 -0.1175,0.0891 -0.33784,0.0681 -0.48952,-0.0471 z"
       id="path1" />
  </g>
</svg>
