<?xml version="1.0" encoding="UTF-8" standalone="no"?>
<svg
   xmlns:dc="http://purl.org/dc/elements/1.1/"
   xmlns:cc="http://creativecommons.org/ns#"
   xmlns:rdf="http://www.w3.org/1999/02/22-rdf-syntax-ns#"
   xmlns:svg="http://www.w3.org/2000/svg"
   xmlns="http://www.w3.org/2000/svg"
   xmlns:xlink="http://www.w3.org/1999/xlink"
   xmlns:sodipodi="http://sodipodi.sourceforge.net/DTD/sodipodi-0.dtd"
   xmlns:inkscape="http://www.inkscape.org/namespaces/inkscape"
   width="800px"
   height="600px"
   viewBox="0 0 800 600"
   version="1.1"
   id="SVGRoot"
   sodipodi:docname="mirror horror.svg"
   inkscape:version="1.0.2-2 (e86c870879, 2021-01-15)">
  <defs
     id="defs833" />
  <sodipodi:namedview
     id="base"
     pagecolor="#000000"
     bordercolor="#666666"
     borderopacity="1.0"
     inkscape:pageopacity="0"
     inkscape:pageshadow="2"
     inkscape:zoom="1"
     inkscape:cx="428.43038"
     inkscape:cy="306.36044"
     inkscape:document-units="px"
     inkscape:current-layer="layer1"
     inkscape:document-rotation="0"
     showgrid="false"
     inkscape:window-width="1920"
     inkscape:window-height="986"
     inkscape:window-x="-11"
     inkscape:window-y="-11"
     inkscape:window-maximized="1"
     units="mm" />
  <metadata
     id="metadata836">
    <rdf:RDF>
      <cc:Work
         rdf:about="">
        <dc:format>image/svg+xml</dc:format>
        <dc:type
           rdf:resource="http://purl.org/dc/dcmitype/StillImage" />
        <dc:title></dc:title>
      </cc:Work>
    </rdf:RDF>
  </metadata>
  <g
     inkscape:label="Lag 1"
     inkscape:groupmode="layer"
     id="layer1">
    <rect
       style="fill:#000000;stroke:#000000;stroke-width:3.26929;stop-color:#000000"
       id="rect843"
       width="831"
       height="607"
       x="0"
       y="-3" />
    <g
       id="use1415"
       transform="rotate(50.510992,475.11996,137.20892)"
       style="fill:#ffffff;fill-opacity:1">
      <rect
         style="fill:#ffffff;stroke:#000000;stroke-width:3.26929;stop-color:#000000;fill-opacity:1"
         id="rect1471"
         width="68.690376"
         height="170.71577"
         x="261.62952"
         y="219.20309" />
      <path
         style="fill:#ffffff;stroke:#000000;stroke-width:3.26929;stop-color:#000000;fill-opacity:1"
         id="path1473"
         sodipodi:type="arc"
         sodipodi:cx="260.11429"
         sodipodi:cy="304.56097"
         sodipodi:rx="54.043167"
         sodipodi:ry="62.124374"
         sodipodi:start="1.5707963"
         sodipodi:end="4.712389"
         sodipodi:arc-type="slice"
         d="m 260.11429,366.68535 a 54.043167,62.124374 0 0 1 -46.80276,-31.06219 54.043167,62.124374 0 0 1 0,-62.12437 54.043167,62.124374 0 0 1 46.80276,-31.06219 v 62.12437 z" />
    </g>
    <g
       id="use1417"
       transform="rotate(-151.94747,489.40246,343.7403)"
       style="fill:#ffffff;fill-opacity:1">
      <rect
         style="fill:#ffffff;stroke:#000000;stroke-width:3.26929;stop-color:#000000;fill-opacity:1"
         id="rect1477"
         width="68.690376"
         height="170.71577"
         x="261.62952"
         y="219.20309" />
      <path
         style="fill:#ffffff;stroke:#000000;stroke-width:3.26929;stop-color:#000000;fill-opacity:1"
         id="path1479"
         sodipodi:type="arc"
         sodipodi:cx="260.11429"
         sodipodi:cy="304.56097"
         sodipodi:rx="54.043167"
         sodipodi:ry="62.124374"
         sodipodi:start="1.5707963"
         sodipodi:end="4.712389"
         sodipodi:arc-type="slice"
         d="m 260.11429,366.68535 a 54.043167,62.124374 0 0 1 -46.80276,-31.06219 54.043167,62.124374 0 0 1 0,-62.12437 54.043167,62.124374 0 0 1 46.80276,-31.06219 v 62.12437 z" />
    </g>
    <use
       x="0"
       y="0"
       xlink:href="#use1417"
       id="use1421"
       transform="matrix(0.92521011,-0.3794552,-0.3794552,-0.92521011,257.6816,780.09546)"
       width="100%"
       height="100%"
       style="fill:#28307e;fill-opacity:1;stroke:#000000;stroke-opacity:1;opacity:1" />
    <use
       x="0"
       y="0"
       xlink:href="#use1421"
       id="use1452"
       transform="rotate(180,459.7993,202.16959)"
       width="100%"
       height="100%" />
    <path
       id="path1456"
       style="fill:#00ff00;stroke:#000000;stroke-width:3.26929;stroke-miterlimit:4;stroke-dasharray:none;stroke-opacity:1;stop-color:#000000"
       d="M 597.65625 121.19727 C 595.37528 121.19762 593.09392 121.20879 590.8125 121.23242 C 580.97372 121.37476 571.13405 121.49033 561.29492 121.60547 C 550.83486 121.72571 540.37443 121.75152 529.91406 121.83008 C 519.9974 121.89758 510.08066 121.98332 500.16406 122.05859 C 491.96899 122.10219 483.77337 122.20419 475.57812 122.20117 C 467.68478 122.11277 459.79177 122.00844 451.89844 121.91797 C 444.10857 121.85017 436.31911 121.75839 428.5293 121.68555 C 419.93295 121.59725 411.3368 121.52794 402.74023 121.60742 C 395.08782 121.60042 387.44528 121.92848 379.80273 122.27148 C 372.51943 122.62816 365.23331 122.88902 357.94336 123.05664 C 348.59522 123.25221 339.24575 123.36031 329.89648 123.48438 C 320.27369 123.58783 310.64995 123.71551 301.02734 123.83398 C 292.2551 123.90728 283.48309 123.96709 274.71094 124.05078 C 267.66742 123.95488 260.67926 124.46156 253.80078 125.97852 C 246.42023 128.08396 240.42232 132.06458 233.9668 136.42578 C 233.17274 136.96223 231.31082 139.60248 230.76172 140.3418 C 228.0586 144.78371 226.77146 149.76894 225.72461 154.80273 C 224.85531 159.36767 224.44019 163.98057 224.46484 168.62305 C 224.55084 173.38189 225.01461 178.13245 225.70312 182.83984 C 226.39914 187.8999 227.67798 192.81534 229.25195 197.66406 C 230.73479 202.50925 232.21189 207.35517 233.74219 212.18555 C 235.27972 217.62319 236.41174 223.16663 237.49805 228.70898 C 238.44184 233.52716 239.25847 238.36928 239.93164 243.23242 C 240.693 247.53066 240.08244 251.86428 240.41016 256.17969 C 241.28749 258.77668 241.36486 259.92926 243.5957 261.99219 C 249.70182 267.63871 262.2774 268.20322 270.01758 269.10352 C 294.17793 271.13717 318.43019 271.76337 342.6582 272.44336 C 370.4577 273.15307 398.26115 273.73173 426.06641 274.1582 C 455.23526 274.5921 484.40568 274.83221 513.57617 275.11914 C 538.47489 275.39287 563.37371 275.72412 588.27148 276.07227 C 606.81238 276.37178 625.3543 276.58857 643.89648 276.78711 C 643.65607 284.4477 643.4016 292.11069 642.87695 299.75781 C 642.25355 307.88753 641.61758 316.01932 640.61719 324.11328 C 639.59383 332.00181 638.46048 339.87834 636.86914 347.67578 C 635.12447 356.29321 633.13395 364.8608 630.76562 373.33008 C 628.08461 382.80026 625.27485 392.23383 622.41797 401.65234 C 619.57828 411.04357 616.86591 420.47341 614.95898 430.10742 C 613.64632 436.87718 612.97113 443.76579 611.20703 450.44141 C 609.95642 454.3538 608.40575 458.21405 605.89258 461.50586 C 605.88831 461.51058 605.88511 461.51288 605.88086 461.51758 C 601.78822 461.92413 597.64539 461.68881 593.5332 461.79883 C 587.20837 461.84463 580.88326 461.90886 574.55859 461.97266 C 567.07686 462.07006 559.5948 462.18437 552.11328 462.29688 C 542.80638 462.44781 533.50031 462.61091 524.19531 462.85547 C 514.23629 463.1356 504.27764 463.45444 494.32422 463.89453 C 483.81533 464.35085 473.31031 464.858 462.81055 465.49414 C 451.37185 466.13539 439.91956 466.51176 428.48242 467.18555 C 417.88781 467.80225 407.29812 468.43881 396.68164 468.52344 C 385.36876 468.55194 374.05507 468.5646 362.74219 468.5957 C 348.80736 468.6356 334.87315 468.65705 320.93945 468.85352 C 309.61853 469.04836 298.29739 469.30239 286.97656 469.50195 C 276.19223 469.71323 265.4079 469.94513 254.625 470.2207 C 241.8703 470.55657 229.11663 470.94094 216.37109 471.53906 C 204.431 472.11214 192.49003 472.72084 180.58203 473.79102 C 172.24503 474.58567 163.94341 475.60727 155.67188 476.91602 C 152.69842 477.37372 149.28297 477.5763 146.67383 479.19727 L 139.91211 492.65625 C 142.71206 492.10541 145.40791 491.14609 148.23438 490.58789 C 156.25893 489.35481 164.31629 488.40025 172.39844 487.64258 C 184.17114 486.61701 195.97541 485.99401 207.77734 485.42188 C 220.49209 484.84222 233.21304 484.43584 245.93359 484.00781 C 256.74068 483.63505 267.55115 483.33162 278.36133 483.06445 C 289.5813 482.73425 300.8056 482.73029 312.0293 482.70508 C 325.97497 482.65388 339.92022 482.48681 353.86523 482.34961 C 365.22208 482.23818 376.58039 482.13048 387.9375 482.05078 C 398.64197 482.02148 409.33313 481.53367 420.01953 480.96289 C 431.46031 480.35836 442.9085 479.90436 454.34766 479.26953 C 464.85203 478.64301 475.35972 478.07557 485.86914 477.54102 C 495.77933 477.05693 505.69561 476.72964 515.61328 476.44727 C 524.93504 476.18255 534.25747 475.94131 543.58008 475.70898 C 551.07439 475.51056 558.56862 475.36853 566.06445 475.24414 C 572.40565 475.12096 578.74816 475.0344 585.08984 474.94141 C 590.27273 474.86161 595.45744 474.87693 600.63281 474.5625 C 607.45958 473.95399 610.2639 471.47724 617.34375 467.0293 C 618.46552 466.32454 620.60771 462.57399 621.32031 461.37305 C 623.68423 457.15242 625.31506 452.6059 626.54297 447.94336 C 628.12343 441.01996 628.91946 433.9748 630.55859 427.0625 C 632.60286 417.61466 635.49297 408.39936 638.29297 399.1582 C 641.13219 389.6894 643.96828 380.21842 646.56445 370.67969 C 648.87676 362.03766 650.7671 353.29322 652.44141 344.50781 C 653.95258 336.5458 655.05661 328.51697 656.0332 320.47461 C 657.011 312.25762 657.65558 304.00708 658.23242 295.75391 C 658.60019 289.48904 658.8274 283.21742 659.0293 276.94531 C 678.5659 277.1448 698.10126 277.2841 717.63867 277.37891 C 736.89087 277.49697 756.14396 277.56238 775.39648 277.58789 C 783.26436 277.58942 791.13213 277.59321 799 277.59766 L 799 263.54688 C 794.21038 263.50793 789.42044 263.47822 784.63086 263.43359 C 765.43226 263.27661 746.23389 263.14949 727.03516 263.00977 C 705.8726 262.82282 684.70912 262.6632 663.54688 262.44531 C 662.17838 262.43021 660.8099 262.41186 659.44141 262.39648 C 659.56542 256.93071 659.66889 251.46442 659.76367 245.99805 C 659.80957 237.67077 660.02339 229.36054 660.68164 221.05859 C 661.26258 213.64668 662.38912 206.27751 663.65039 198.95312 C 664.99039 192.62829 666.2338 186.28495 667.33398 179.91406 C 668.3492 174.52501 669.44895 169.1549 670.35742 163.74609 C 671.12802 159.08243 671.77789 154.40026 672.33789 149.70703 C 672.79545 145.62354 672.7948 141.5123 672.17578 137.45117 C 671.05437 132.78908 667.60074 129.76993 663.75586 127.25781 C 657.82738 123.70407 650.9517 123.0155 644.21289 122.44336 C 635.54677 121.88935 626.8611 121.72811 618.18164 121.51367 C 611.33992 121.30041 604.49915 121.19619 597.65625 121.19727 z M 595.76953 134.56641 C 600.30836 134.54479 604.84634 134.57903 609.38477 134.74219 C 617.98388 134.94321 626.58177 135.21043 635.17773 135.51758 C 640.98935 135.76393 647.09513 135.6194 652.55859 137.86719 C 654.65432 138.88201 657.28957 140.0559 657.71289 142.58984 C 657.98163 146.1527 657.774 149.72251 657.2793 153.25977 C 656.67169 157.85261 655.96808 162.43237 655.14648 166.99219 C 654.16671 172.39107 653.00586 177.7543 652.02148 183.15234 C 650.83607 189.54388 649.46917 195.89816 648.26172 202.28516 C 647.02563 209.84196 645.81836 217.41731 645.30664 225.06445 C 644.72937 233.49291 644.57376 241.92982 644.51953 250.37695 C 644.4428 254.32255 644.33789 258.26759 644.24609 262.21289 C 628.7787 262.02505 613.31209 261.82329 597.8457 261.56641 C 573.05649 261.09142 548.27041 260.47303 523.48047 260.03711 C 494.32899 259.6605 465.17646 259.44704 436.02539 259.03516 C 408.19377 258.66807 380.36007 258.36685 352.53516 257.625 C 328.28609 257.02291 304.02902 256.48684 279.80078 255.2793 C 271.2838 254.75779 271.39752 254.86317 263.48633 254.04297 C 262.17165 253.90667 256.05251 253.48096 255.39844 252.58008 C 255.17789 252.27631 255.21484 251.85227 255.12305 251.48828 C 255.08175 246.94944 255.28214 242.39711 254.48242 237.89844 C 253.75939 232.91524 252.9615 227.94167 252.01172 222.99609 C 250.87778 217.19644 249.69582 211.39256 247.9082 205.75195 C 246.37248 200.92691 244.89158 196.08588 243.36523 191.25781 C 241.9762 186.76117 240.91272 182.19287 240.26758 177.52539 C 239.69939 173.14918 239.26666 168.74051 239.31836 164.32227 C 239.46765 160.15568 239.98504 156.01405 240.95117 151.95312 C 241.98367 147.995 243.23786 143.94523 246.21875 140.98828 C 246.70333 140.56803 247.24565 140.16 247.78711 139.77344 C 248.34623 139.52713 248.90563 139.27816 249.48828 139.09766 C 254.84016 137.43965 260.56591 137.52056 266.09766 137.39062 C 274.86338 137.37203 283.62913 137.32398 292.39453 137.24609 C 302.00703 137.19349 311.6187 137.13637 321.23047 137.00195 C 330.64469 136.8785 340.05938 136.72316 349.4707 136.45312 C 356.80883 136.22812 364.14568 135.98196 371.48047 135.66406 C 379.0301 135.33179 386.57872 134.9173 394.13867 134.9668 C 402.70814 134.8977 411.27803 134.91984 419.84766 134.96484 C 427.63482 134.99964 435.42054 135.03502 443.20703 135.15039 C 451.11381 135.24209 459.02085 135.35906 466.92773 135.44141 C 475.11609 135.54021 483.30533 135.45905 491.49414 135.46875 C 501.38265 135.45505 511.27176 135.44558 521.16016 135.39258 C 531.64609 135.33998 542.1317 135.22223 552.61719 135.11523 C 562.46269 135.01367 572.30733 134.87253 582.15234 134.73242 C 586.69137 134.66713 591.2307 134.58802 595.76953 134.56641 z M 250.56445 138 C 250.63834 137.97681 250.12375 138.30803 248.78906 139.08594 C 249.72576 138.46814 250.48199 138.02588 250.56445 138 z M 246.92773 140.15039 C 245.44626 140.99296 243.6082 142.02579 240.875 143.52539 C 240.21479 143.88762 242.09914 142.64579 242.74219 142.25391 C 244.29163 141.30969 245.32295 140.88439 246.92773 140.15039 z M 611.35547 459.6543 C 611.41455 459.67143 610.40259 460.36771 610.00586 460.57422 C 609.50304 460.83595 608.94707 460.97903 608.41602 461.17773 C 609.36174 460.67814 610.30392 460.17333 611.25977 459.69336 C 611.31687 459.66469 611.34703 459.65185 611.35547 459.6543 z M 603.57031 463.75586 C 603.54006 463.77672 603.51954 463.79736 603.48828 463.81836 C 603.07352 464.09699 601.72077 464.74796 602.16211 464.51367 C 602.63293 464.26372 603.10066 464.00808 603.57031 463.75586 z " />
    <path
       style="fill:none;stroke:#000000;stroke-width:1px;stroke-linecap:butt;stroke-linejoin:miter;stroke-opacity:1"
       d="m 644.24609,262.21289 c -0.71255,3.56536 0.0551,7.29734 -0.24609,10.91211 -0.0187,0.22435 -1.00969,3.91031 -0.75,3.875 0.22481,-0.0306 0.43099,-0.14193 0.64648,-0.21289"
       id="path1463" />
    <path
       style="fill:none;stroke:#000000;stroke-width:1px;stroke-linecap:butt;stroke-linejoin:miter;stroke-opacity:1"
       d="m 659.44141,262.39648 c 0.52977,4.19307 -0.22649,9.37328 1.05859,13.22852 0.10993,0.3298 0.50158,2.93671 0.375,3 -1.06124,0.53062 -1.12565,-0.71405 -1.8457,-1.67969"
       id="path1465" />
    <rect
       style="fill:#00ff00;stroke:#000000;stroke-width:3.26929;stroke-miterlimit:4;stroke-dasharray:none;stroke-opacity:1;stop-color:#000000"
       id="rect1483"
       width="92"
       height="189"
       x="10"
       y="390" />
    <rect
       style="fill:#00ff00;stroke:#000000;stroke-width:3.26929;stroke-miterlimit:4;stroke-dasharray:none;stroke-opacity:1;stop-color:#000000"
       id="rect1485"
       width="136"
       height="56"
       x="58"
       y="458" />
  </g>
</svg>
